<svg width="2738" height="671" viewBox="0 0 2738 671" fill="none" xmlns="http://www.w3.org/2000/svg">
<path d="M196.983 431.385C197.597 429.949 198.191 428.805 198.764 427.951C200.308 425.48 202.078 423.454 204.076 421.872C201.489 422.52 199.156 424.104 197.077 426.624C196.28 427.48 195.418 428.649 194.492 430.132L193.569 431.95L192.646 433.767C189.961 438.617 186.576 442.645 182.492 445.853C185.078 445.205 187.525 443.844 189.831 441.769C191.784 440.099 193.552 437.849 195.137 435.02L196.06 433.202L196.983 431.385ZM72.7173 401.933C73.0488 393.573 74.3243 385.853 76.5437 378.774C78.7593 371.247 82.2758 364.29 87.0931 357.903C91.6491 352.323 97.6394 347.245 105.064 342.668C101.724 344.037 98.2321 345.988 94.5889 348.522C91.4342 350.693 88.3732 353.378 85.406 356.577C80.1834 362.609 76.311 369.748 73.7886 377.992C71.3969 385.833 70.3022 393.798 70.5046 401.885C70.6635 410.107 71.8705 418.074 74.1255 425.786C72.8438 416.904 72.3744 408.953 72.7173 401.933ZM206.783 409.046C217.277 408.063 226.669 414.151 234.959 427.31C244.108 441.712 246.118 457.516 240.99 474.72C235.646 492.821 223.727 507.602 205.233 519.065C194.341 525.861 183.001 529.912 171.214 531.218C159.426 532.525 147.883 531.013 136.585 526.684C112.465 517.682 92.7479 498.185 77.4336 468.192C63.9369 441.76 58.273 416.714 60.4416 393.054C62.4928 371.362 70.4621 354.558 84.3497 342.642C95.1753 333.299 107.55 327.43 121.473 325.033C136.601 322.358 150.986 324.381 164.629 331.104C170.957 334.268 175.93 338.404 179.549 343.513C182.94 348.177 184.769 353.078 185.036 358.215C185.212 363.174 183.907 367.431 181.122 370.985C178.204 374.719 174.066 376.944 168.709 377.659C156.477 379.193 147.696 381.881 142.365 385.725C135.08 391.016 133.203 398.875 136.732 409.303C139.161 416.477 142.654 422.548 147.21 427.515C151.404 431.993 156.011 435.083 161.031 436.783C166.005 438.395 170.541 438.379 174.639 436.735C179.049 435.044 182.417 431.753 184.745 426.863C187.115 421.837 190.231 417.722 194.092 414.516C197.953 411.31 202.184 409.487 206.783 409.046Z" fill="#28BF0F"/>
<path d="M250 284.239C250.895 283.241 251.688 282.391 252.378 281.689C253.721 280.193 255.362 278.633 257.299 277.009L259.982 274.823L262.665 272.637C254.198 277.588 247.247 283.659 241.812 290.851C239.61 293.439 237.132 297.37 234.379 302.645L233.758 304.34L232.943 305.951C232.38 307.247 231.995 308.312 231.786 309.146L230.685 312.481L229.777 315.9C227.674 325.001 227.953 334.29 230.617 343.767C232.97 352.184 236.454 360.746 241.07 369.453L238.679 362.984C237.819 360.53 237.115 358.337 236.568 356.405L234.456 349.825C233.726 347.428 233.18 345.226 232.818 343.221C230.693 333.747 230.625 324.858 232.613 316.554C233.204 313.421 234.653 309.197 236.961 303.882C239.118 299.272 241.345 295.386 243.642 292.224C244.073 291.41 244.718 290.457 245.577 289.367L247.761 286.733L250 284.239ZM310.414 247.038C329.615 248.059 346.419 255.396 360.827 269.049C372.631 280.184 383.168 294.236 392.438 311.204C401.212 327.187 407.701 343.641 411.906 360.566C416.204 377.455 417.479 391.99 415.731 404.174C413.848 417.377 408.63 425.934 400.075 429.845C389.92 434.602 380.525 433.795 371.89 427.426C360.259 418.908 349.382 400.317 339.26 371.654C334.609 358.772 329.239 348.698 323.15 341.431C316.563 333.717 310.656 331.267 305.428 334.081C296.18 339.232 298.462 352.78 312.273 374.724C329.842 402.384 339.773 422.798 342.066 435.966C344.087 447.629 340.196 456.146 330.39 461.517C323.506 465.306 314.676 464.707 303.901 459.719C293.773 455.012 283.198 446.991 272.174 435.655C247.523 410.466 230.471 381.528 221.017 348.842C215.925 331.3 217.39 314.179 225.413 297.48C232.836 281.984 244.458 269.506 260.276 260.044C276.151 250.453 292.864 246.118 310.414 247.038Z" fill="#28BF0F"/>
<path d="M499.457 276.665C500.969 273.787 501.82 270.802 502.009 267.708C502.263 264.49 501.817 261.541 500.671 258.863C500.608 265.057 499.343 270.578 496.874 275.427C495.75 277.87 494.203 280.13 492.233 282.207C490.359 284.256 488.079 286.011 485.395 287.474C488.34 287.186 491.113 286.009 493.715 283.944C496.061 282.064 497.974 279.637 499.457 276.665ZM476.273 255.619C474.178 257.631 472.859 260.291 472.318 263.599C471.843 266.782 472.227 269.697 473.469 272.346C474.777 274.869 476.596 276.344 478.926 276.771C481.257 277.197 483.469 276.404 485.564 274.392C487.564 272.41 488.835 269.765 489.376 266.457C489.946 263.245 489.611 260.314 488.368 257.666C487.06 255.142 485.241 253.667 482.911 253.241C480.581 252.815 478.368 253.607 476.273 255.619ZM419.874 231.247C422.977 224.736 427.298 218.944 432.837 213.873C437.636 209.45 443.817 205.435 451.381 201.827C448.136 202.836 444.647 204.235 440.913 206.024C437.495 207.82 434.324 209.905 431.399 212.279C425.426 216.963 420.723 222.873 417.292 230.01C414.087 236.867 412.169 244.161 411.539 251.891C411.212 255.551 411.135 259.342 411.309 263.265C411.601 267.57 412.064 271.245 412.697 274.292C412.459 265.785 412.782 258.412 413.667 252.172C414.87 244.263 416.939 237.288 419.874 231.247ZM411.771 219.326C420.918 204.656 435.111 194.434 454.35 188.66C472.759 183.248 489.137 183.754 503.483 190.176C516.733 196.101 526.427 205.906 532.566 219.589C538.646 233.082 540.03 247.459 536.719 262.722C533.227 279.086 524.88 293.298 511.677 305.358C507.684 309.006 505.675 312.98 505.652 317.278C505.581 320.753 506.836 325.124 509.416 330.392C509.933 331.382 510.558 332.548 511.289 333.891L513.251 337.676C515.047 341.094 516.447 343.746 517.452 345.631C520.697 352.365 522.799 358.619 523.757 364.39C525.296 372.702 524.278 380.03 520.705 386.374C517.131 392.718 511.758 396.639 504.584 398.138C496.647 399.873 487.749 398.35 477.89 393.567C466.684 388.157 455.207 379.012 443.457 366.131C431.243 352.768 421.3 337.285 413.628 319.682C405.683 301.537 401.361 283.94 400.663 266.89C399.872 248.194 403.575 232.34 411.771 219.326Z" fill="#28BF0F"/>
<path d="M672.573 288.121C674.9 286.236 676.725 283.75 678.048 280.664C680.621 274.613 680.513 268.734 677.725 263.027C678.105 269.406 677.308 274.935 675.335 279.612C673.138 284.65 669.559 288.834 664.596 292.165C667.56 291.669 670.218 290.321 672.573 288.121ZM643.411 262.521C642.373 265.95 642.584 269.443 644.042 273C645.5 276.557 647.806 279.143 650.961 280.759C654.116 282.374 657.191 282.57 660.188 281.348C663.185 280.125 665.202 277.799 666.239 274.371C667.396 271.016 667.197 267.572 665.642 264.038C664.184 260.481 661.878 257.894 658.723 256.279C655.545 254.567 652.458 254.322 649.461 255.544C646.487 256.864 644.471 259.19 643.411 262.521ZM593.002 180.336C597.548 173.51 603.208 167.703 609.983 162.917C616.122 158.486 623.536 154.883 632.224 152.109L626.063 153.412L623.035 154.283L620.041 155.3C615.9 156.896 612.132 158.763 608.736 160.902C601.675 165.345 595.637 171.292 590.623 178.742C585.905 185.712 582.499 193.449 580.404 201.955C578.338 210.145 577.433 218.472 577.69 226.934L578.531 220.728L579.519 214.487L580.868 208.469L581.705 205.498L582.542 202.527C585.341 193.958 588.827 186.561 593.002 180.336ZM583.892 170.477C599.948 148.502 623.875 137.654 655.672 137.934C684.076 138.196 705.83 149.632 720.936 172.243C734.305 192.287 740.379 217.086 739.158 246.641C737.97 275.47 730.316 299.975 716.197 320.157C700.696 342.309 681.147 352.993 657.549 352.211C632.423 351.482 611.18 339.822 593.82 317.231C577.698 296.401 568.483 271.78 566.175 243.368C563.878 214.132 569.783 189.835 583.892 170.477Z" fill="#28BF0F"/>
<path d="M877.92 226.429C878.937 225.246 879.848 224.333 880.653 223.692C882.869 221.8 885.167 220.402 887.549 219.496C884.887 219.334 882.185 220.142 879.444 221.919C878.426 222.494 877.252 223.35 875.922 224.485L874.494 225.94L873.066 227.395C869.045 231.21 864.604 234.032 859.743 235.86C862.404 236.021 865.147 235.46 867.972 234.176C870.336 233.172 872.701 231.56 875.064 229.34L876.492 227.885L877.92 226.429ZM768.3 160.908C771.135 153.037 774.677 146.06 778.926 139.977C783.307 133.468 788.756 127.894 795.273 123.255C801.299 119.307 808.541 116.269 816.999 114.142C813.402 114.441 809.485 115.25 805.247 116.568C801.585 117.688 797.857 119.326 794.064 121.482C787.267 125.661 781.424 131.301 776.535 138.403C771.892 145.159 768.449 152.423 766.205 160.196C763.88 168.083 762.63 176.044 762.457 184.078C763.911 175.221 765.859 167.498 768.3 160.908ZM893.994 208.081C904.297 210.306 911.418 218.94 915.358 233.985C919.743 250.475 916.899 266.15 906.826 281.01C896.277 296.659 880.459 307.163 859.37 312.522C846.937 315.72 834.904 316.167 823.27 313.861C811.637 311.555 801.086 306.637 791.616 299.105C771.329 283.254 758.402 258.722 752.835 225.51C747.929 196.239 750.074 170.651 759.27 148.744C767.761 128.677 780.423 115.055 797.255 107.876C810.393 102.229 823.96 100.361 837.959 102.27C853.19 104.276 866.297 110.54 877.281 121.06C882.361 125.984 885.857 131.427 887.769 137.388C889.597 142.857 889.865 148.081 888.572 153.06C887.245 157.842 884.719 161.507 880.992 164.057C877.085 166.739 872.469 167.614 867.145 166.682C855.019 164.459 845.836 164.377 839.595 166.436C831.055 169.286 826.897 176.215 827.121 187.221C827.276 194.795 828.777 201.635 831.625 207.744C834.275 213.278 837.737 217.612 842.011 220.746C846.269 223.781 850.599 225.132 855.001 224.8C859.716 224.516 863.919 222.393 867.612 218.43C871.387 214.353 875.598 211.367 880.245 209.474C884.893 207.58 889.476 207.116 893.994 208.081Z" fill="#28BF0F"/>
<path d="M1026.79 109.334C1029.16 104.881 1031.49 101.034 1033.77 97.7933C1036.41 94.0162 1039.45 90.7016 1042.88 87.8496C1036.55 91.8934 1030.55 98.7165 1024.88 108.319C1020.58 115.575 1017.05 124.01 1014.29 133.624C1013.24 137.144 1012.12 141.573 1010.95 146.912L1009.35 153.548L1007.9 160.169C1006.54 165.727 1004.99 169.848 1003.25 172.532C1001.96 174.669 1000.46 176.274 998.76 177.347C997.149 178.311 995.006 178.976 992.331 179.342C995.046 179.373 997.308 178.897 999.118 177.914C1001.14 177.01 1002.9 175.529 1004.4 173.472C1006.33 170.669 1008.22 166.414 1010.06 160.707C1010.98 157.804 1012.15 153.42 1013.57 147.554L1015.32 140.903L1017.08 134.401C1019.61 125.513 1022.85 117.157 1026.79 109.334ZM936.9 164.221C937.153 155.66 937.673 148.278 938.462 142.073L938.627 140.701L938.791 139.329L939.24 136.272C939.5 133.836 939.834 131.644 940.243 129.695C941.121 124.386 942.266 119.753 943.68 115.796C947.434 105.079 953.105 98.9915 960.692 97.5336C954.388 97.7592 949.131 101.446 944.922 108.593C943.379 111.257 941.941 114.463 940.607 118.211C939.68 121.014 938.839 124.161 938.081 127.65C933.906 145.238 933.345 164.826 936.397 186.414L936.656 175.392L936.9 164.221ZM1033.26 80.5217C1044.94 70.7234 1057.21 68.8999 1070.07 75.0511C1080.41 80.0477 1089.64 93.59 1097.77 115.678C1105.32 136.115 1110.39 159.31 1112.97 185.263C1115.52 211.823 1114.82 234.085 1110.88 252.051C1106.35 272.084 1098.37 282.72 1086.94 283.957C1069.15 285.827 1059.3 274.607 1057.38 250.294C1057.1 246.407 1057 241.848 1057.08 236.617C1057.11 234.907 1057.15 232.794 1057.2 230.279L1057.37 227.4L1057.38 224.537C1057.6 216.582 1057.04 212.47 1055.7 212.201C1054.38 212.031 1053.42 212.478 1052.82 213.542C1052.39 214.188 1051.55 216.43 1050.33 220.267C1049.65 222.544 1048.95 224.572 1048.22 226.352C1047.3 229.155 1046.27 231.969 1045.15 234.792C1042.07 242.228 1038.26 250.34 1033.71 259.127C1028.58 269.177 1021.91 277.273 1013.68 283.414C1004.99 289.902 995.909 293.015 986.443 292.752C953.989 291.563 934.028 262.519 926.558 205.62C922.477 174.694 922.943 148.086 927.955 125.796C933.197 102.78 942.097 89.7936 954.657 86.8367C964.959 84.4057 972.898 86.4778 978.473 93.053C985.429 101.399 988.404 116.668 987.399 138.861C986.896 150.962 986.912 158.692 987.447 162.054C987.923 165.822 989.463 167.677 992.068 167.619C993.47 167.58 994.724 166.049 995.829 163.027C996.715 160.83 997.831 156.903 999.176 151.246L999.744 149.382L1000.16 147.533L1001.12 143.521C1001.9 140.23 1002.61 137.347 1003.27 134.872C1005.1 128.061 1007.07 122.042 1009.16 116.813C1015.58 100.608 1023.61 88.5113 1033.26 80.5217Z" fill="#28BF0F"/>
<path d="M1343.96 78.0393C1345.15 76.4361 1346.45 75.3321 1347.84 74.7275C1349.14 74.1232 1350.89 73.6671 1353.08 73.3593C1350.89 73.2674 1349.09 73.4738 1347.69 73.9785C1345.99 74.4844 1344.4 75.4895 1342.9 76.9938C1340.81 79.2998 1339.13 82.7035 1337.85 87.205C1336.47 92.8061 1335.84 100.103 1335.98 109.096L1335.99 111.944L1336.15 114.642C1336.15 116.74 1336.11 118.489 1336.02 119.888C1335.83 123.387 1335.14 126.837 1333.96 130.239C1331.38 137.343 1326.71 142.506 1319.92 145.729C1323.42 144.717 1326.61 142.906 1329.5 140.298C1332.18 137.79 1334.32 134.734 1335.91 131.131C1337.39 127.928 1338.33 124.277 1338.72 120.178C1338.91 118.579 1338.95 116.68 1338.84 114.482L1338.83 111.784L1338.82 109.086C1338.59 100.493 1339.02 93.3464 1340.1 87.6465C1340.98 83.4463 1342.27 80.2439 1343.96 78.0393ZM1238.79 92.5121C1240.66 87.1091 1243.35 82.5526 1246.83 78.8425C1250.81 74.4312 1255.45 71.966 1260.74 71.4471C1258.14 71.1568 1255.4 71.5165 1252.5 72.5264C1249.81 73.5355 1247.37 75.0932 1245.18 77.1997C1241.19 80.8117 1238.16 85.6193 1236.08 91.6226C1232.53 102.228 1230.62 113.177 1230.36 124.47L1232.28 116.369L1234.2 108.418C1235.77 102.316 1237.3 97.0143 1238.79 92.5121ZM1330.91 75.6885C1335.07 67.0794 1342.25 62.4565 1352.44 61.8199C1366.73 61.0684 1378.11 70.5702 1386.57 90.3253C1394.74 109.282 1398.42 133.002 1397.62 161.484C1396.66 198.462 1393.61 224.954 1388.47 240.961C1381.46 263.071 1369.1 274.158 1351.42 274.223C1340.93 274.261 1332.87 270.243 1327.24 262.169C1321.01 253.498 1318.32 240.917 1319.16 224.426C1319.52 214.631 1318.1 207.491 1314.88 203.006C1312.37 199.618 1308.87 197.932 1304.37 197.948C1295.18 197.982 1291.32 207.239 1292.78 225.721C1294.77 250.996 1286.18 265.067 1267 267.935C1258.42 269.165 1250.56 266.845 1243.45 260.975C1234.73 253.812 1228.39 241.994 1224.43 225.52C1219.05 203.355 1216.47 179.981 1216.68 155.398C1216.89 129.915 1220.1 107.819 1226.33 89.1099C1229.49 79.4053 1234.56 71.8922 1241.54 66.5705C1248.71 61.0483 1256.8 58.9703 1265.8 60.3366C1277 61.9946 1285.01 66.762 1289.83 74.6389C1295.26 83.5128 1297.06 96.7468 1295.22 114.341C1294.65 120.539 1295.62 125.582 1298.13 129.47C1300.64 133.258 1304.34 135.343 1309.24 135.725C1314.14 136.107 1318.08 134.643 1321.07 131.335C1324.65 127.524 1326.28 121.823 1325.95 114.229C1325.09 96.8446 1326.74 83.9977 1330.91 75.6885Z" fill="#28BF0F"/>
<path d="M1515.79 218.134L1518.08 217.515C1524.88 215.804 1530.91 214.549 1536.16 213.75C1533.5 213.096 1530.35 212.916 1526.73 213.208C1523.92 213.347 1520.79 213.868 1517.33 214.77C1516.12 215 1514.59 215.463 1512.75 216.158L1510.61 216.786L1508.47 217.563C1505.52 218.395 1502.48 219.021 1499.35 219.442C1502.21 220.207 1505.41 220.29 1508.94 219.693C1510.15 219.562 1511.67 219.249 1513.5 218.754L1515.79 218.134ZM1467.83 80.8529C1471.64 78.97 1475.87 77.5618 1480.53 76.6284C1484.39 75.7488 1488.92 75.2586 1494.13 75.1577C1489.76 74.6061 1485.15 74.6417 1480.31 75.2644C1475.47 75.887 1471 77.0814 1466.89 78.8473C1462.69 80.6075 1458.64 83.0277 1454.76 86.1077C1451.6 88.8289 1448.54 92.4565 1445.58 96.9906C1441.16 104.144 1437.62 112.698 1434.95 122.654C1432.65 131.23 1431.13 140.301 1430.38 149.867L1431.82 143.044C1432.37 140.473 1432.9 138.251 1433.41 136.378C1434.47 131.735 1435.68 127.35 1437.02 123.223C1440.41 113.008 1444.08 104.762 1448.05 98.4836C1450.69 94.3314 1453.53 90.9417 1456.59 88.3146C1459.65 85.5877 1463.39 83.1005 1467.83 80.8529ZM1504.7 157.741L1503.47 158.121L1501.19 158.741L1498.75 159.351C1500.22 159.936 1501.9 160.233 1503.8 160.242C1504.5 160.282 1505.35 160.231 1506.36 160.089L1507.42 160L1508.63 159.919C1510.03 159.8 1511.54 159.736 1513.14 159.728C1515.04 159.837 1516.57 160.075 1517.75 160.443C1516.93 159.095 1515.54 158.114 1513.57 157.5C1512.1 157.015 1510.35 156.865 1508.34 157.05C1507.64 157.109 1506.78 157.26 1505.76 157.502L1504.7 157.741ZM1495.42 206.755C1498.94 208.358 1503.34 208.311 1508.64 206.613C1525.97 201.203 1539.32 200.619 1548.68 204.861C1557.56 208.874 1561.62 216.614 1560.86 228.081C1560.27 236.655 1555.58 244.994 1546.81 253.098C1538.57 260.732 1528.15 266.84 1515.58 271.422C1502.69 276.187 1490.1 278.416 1477.81 278.11C1464.32 277.735 1453.11 274.288 1444.17 267.769C1435.15 261.144 1428.19 248.984 1423.3 231.286C1418.74 214.809 1416.61 196.17 1416.9 175.367C1417.3 154.471 1420.1 135.463 1425.28 118.345C1430.86 99.7479 1438.53 86.3761 1448.31 78.2299C1458.72 69.4197 1471.12 64.5266 1485.49 63.5507C1498.14 62.7766 1510.58 64.9926 1522.79 70.1986C1534.41 75.2705 1542.99 81.8193 1548.54 89.8451C1554.56 98.2986 1555.59 106.366 1551.65 114.046C1549.29 118.515 1545.56 121.654 1540.45 123.462C1536.67 124.746 1531.48 125.449 1524.86 125.569L1520.66 125.628L1516.61 125.545C1513.3 125.555 1510.64 125.653 1508.63 125.838C1502.81 126.203 1498.44 127.354 1495.52 129.288C1493.55 130.576 1492.14 132.397 1491.3 134.751C1490.57 137.011 1490.49 139.259 1491.07 141.494C1492.66 146.79 1496.8 148.78 1503.49 147.462C1511.38 145.914 1518.03 146.847 1523.44 150.261C1528.76 153.569 1531.44 158.327 1531.48 164.535C1531.5 171.243 1528.99 176.603 1523.95 180.618C1518.59 185.015 1510.55 187.405 1499.82 187.789C1496.1 187.976 1493.32 189.368 1491.47 191.964C1489.62 194.46 1489.07 197.181 1489.8 200.125C1490.52 203.27 1492.39 205.479 1495.42 206.755Z" fill="#28BF0F"/>
<path d="M1652.63 173.53C1656.97 172.521 1660.72 171.04 1663.86 169.088C1667.55 166.696 1670.11 163.721 1671.52 160.162C1669.39 162.935 1666.46 165.263 1662.72 167.147C1659.42 168.778 1655.86 169.978 1652.05 170.747C1647.2 171.798 1643.43 173.125 1640.73 174.725C1638.88 175.921 1637.41 177.361 1636.31 179.045C1635.19 180.928 1634.67 182.829 1634.75 184.75C1635.54 181.321 1637.91 178.626 1641.86 176.666C1644.42 175.451 1648.01 174.406 1652.63 173.53ZM1601.2 229.776C1604.4 229.943 1608.6 230.577 1613.81 231.679L1620.14 233.011L1626.62 234.361C1631.55 235.23 1635.93 235.682 1639.75 235.719L1633.31 233.923L1627.03 232.144C1621.96 230.756 1617.76 229.669 1614.43 228.884C1609.02 227.859 1604.59 227.45 1601.14 227.657C1598.21 227.822 1595.97 228.47 1594.43 229.601C1593.55 230.304 1592.93 231.289 1592.58 232.557C1592.39 233.34 1592.22 234.426 1592.06 235.816L1592.67 234.378L1593.31 232.791C1593.82 231.844 1594.5 231.168 1595.35 230.763C1596.54 230.095 1598.49 229.766 1601.2 229.776ZM1623.98 99.9237C1628.13 97.9866 1633.48 96.0872 1640.03 94.2255C1645.43 92.7346 1651.01 91.4651 1656.76 90.417C1644.81 90.2493 1633.48 92.5669 1622.77 97.3699C1616.6 100.281 1611.79 103.601 1608.35 107.329C1606.17 109.593 1604.53 112.07 1603.42 114.758C1602.27 117.744 1601.84 120.612 1602.13 123.361C1602.54 117.977 1605.11 113.143 1609.83 108.857C1612.07 106.902 1614.32 105.249 1616.59 103.901C1619.19 102.289 1621.65 100.963 1623.98 99.9237ZM1714 198.846C1716.85 201.991 1719.42 205.504 1721.69 209.387C1728.57 221.243 1730.53 234.344 1727.58 248.69C1724.34 264.612 1715.48 276.921 1701 285.616C1690.73 291.778 1678.05 294.443 1662.96 293.612C1649.27 292.842 1635.59 289.357 1621.92 283.157C1608.54 276.992 1598.03 269.546 1590.39 260.821C1582.21 251.431 1579.04 242.315 1580.86 233.472C1582.54 225.82 1586.38 220.88 1592.37 218.652C1597.09 216.981 1603.69 216.886 1612.17 218.364C1614.94 218.783 1618.62 219.559 1623.22 220.691L1628.66 221.921C1630.71 222.458 1632.47 222.863 1633.95 223.133C1642.01 224.764 1647.82 224.98 1651.38 223.78C1653.69 222.939 1655.35 221.621 1656.36 219.827C1657.36 218.131 1657.62 216.35 1657.13 214.483C1655.83 210.009 1651.65 207.465 1644.58 206.853C1637.49 206.34 1632 203.797 1628.1 199.224C1624.58 194.896 1623 189.786 1623.38 183.895C1624.34 172.035 1632.85 164.465 1648.92 161.184C1653.25 160.273 1656.67 158.957 1659.19 157.234C1661.5 155.489 1662.45 153.787 1662.04 152.13C1661.73 150.386 1660.06 149.187 1657.02 148.535C1653.59 147.739 1648.97 147.71 1643.15 148.449C1608.37 153.5 1590.92 145.156 1590.8 123.416C1590.69 114.753 1594.11 106.948 1601.04 100C1607.18 93.8664 1615.65 88.9058 1626.44 85.1184C1636.51 81.5488 1647.26 79.4662 1658.69 78.8705C1670.13 78.2747 1680.38 79.2525 1689.44 81.8036C1707.77 86.8296 1720.83 95.2725 1728.62 107.133C1735.97 118.439 1737.63 131.153 1733.59 145.273C1732.05 150.73 1729.31 155.796 1725.35 160.47C1722.45 163.858 1718.63 167.292 1713.91 170.771L1711.1 172.863L1709.64 173.751L1708.33 174.656C1706.25 176.127 1704.71 177.258 1703.72 178.048C1700.84 180.333 1699.41 182.28 1699.42 183.891C1699.47 185.205 1700.17 186.543 1701.53 187.905C1702.08 188.371 1702.86 189.014 1703.87 189.835L1705.24 191.048L1706.76 192.279C1709.52 194.508 1711.93 196.697 1714 198.846Z" fill="#28BF0F"/>
<path d="M1892.18 130.541C1893.65 129.182 1895.12 128.331 1896.61 127.99C1897.99 127.632 1899.79 127.501 1902.01 127.597C1899.86 127.107 1898.06 126.984 1896.59 127.226C1894.83 127.415 1893.08 128.114 1891.34 129.322C1888.86 131.21 1886.59 134.251 1884.51 138.444C1882.14 143.702 1880.2 150.764 1878.69 159.632L1878.19 162.434L1877.85 165.116C1877.48 167.181 1877.12 168.893 1876.77 170.252C1875.95 173.658 1874.65 176.926 1872.87 180.055C1869.05 186.574 1863.51 190.802 1856.25 192.739C1859.87 192.378 1863.34 191.178 1866.65 189.137C1869.75 187.159 1872.41 184.543 1874.62 181.287C1876.67 178.408 1878.25 174.988 1879.37 171.027C1879.86 169.489 1880.24 167.63 1880.54 165.449L1881.02 162.794L1881.5 160.139C1882.83 151.647 1884.54 144.696 1886.64 139.287C1888.27 135.317 1890.12 132.402 1892.18 130.541ZM1786.13 125.669C1788.96 120.698 1792.43 116.704 1796.53 113.688C1801.24 110.074 1806.25 108.492 1811.55 108.943C1809.05 108.186 1806.28 108.041 1803.25 108.508C1800.42 109.011 1797.73 110.099 1795.2 111.772C1790.62 114.601 1786.77 118.778 1783.64 124.304C1778.21 134.087 1774.35 144.507 1772.04 155.565L1775.4 147.947L1778.73 140.477C1781.39 134.763 1783.86 129.827 1786.13 125.669ZM1879.78 125.859C1885.44 118.15 1893.34 114.908 1903.47 116.133C1917.66 117.989 1927.12 129.399 1931.86 150.364C1936.44 170.488 1935.76 194.482 1929.8 222.346C1922.13 258.533 1914.32 284.031 1906.36 298.838C1895.45 319.306 1881.29 327.965 1863.88 324.816C1853.56 322.948 1846.36 317.533 1842.3 308.572C1837.75 298.914 1837.39 286.052 1841.21 269.988C1843.34 260.422 1843.24 253.143 1840.89 248.148C1839.04 244.36 1835.9 242.066 1831.48 241.265C1822.43 239.628 1816.95 248.03 1815.03 266.47C1812.4 291.686 1801.4 303.963 1782.02 303.299C1773.35 302.949 1766.05 299.242 1760.11 292.177C1752.84 283.549 1748.75 270.776 1747.86 253.857C1746.59 231.084 1748.3 207.63 1752.97 183.494C1757.8 158.473 1764.98 137.329 1774.5 120.062C1779.38 111.093 1785.73 104.626 1793.55 100.66C1801.61 96.5325 1809.94 95.958 1818.54 98.936C1829.25 102.601 1836.26 108.744 1839.58 117.366C1843.3 127.079 1842.67 140.419 1837.67 157.387C1835.97 163.377 1836.01 168.512 1837.77 172.791C1839.56 176.973 1842.82 179.696 1847.57 180.961C1852.32 182.227 1856.46 181.504 1859.99 178.792C1864.21 175.696 1866.85 170.385 1867.9 162.859C1870.21 145.607 1874.17 133.273 1879.78 125.859Z" fill="#28BF0F"/>
<path d="M2034.44 283.18C2036.72 283.144 2039.08 282.612 2041.51 281.583C2046.39 279.429 2049.77 276.115 2051.63 271.641C2047.44 275.108 2043.72 277.56 2040.47 278.996C2036.41 280.743 2032.07 281.591 2027.44 281.541C2029.52 282.692 2031.85 283.238 2034.44 283.18ZM2025 262.66C2024.98 265.544 2025.96 267.755 2027.94 269.292C2029.95 270.733 2032.34 271.038 2035.13 270.205C2037.95 269.275 2040.31 267.507 2042.22 264.9C2044.15 262.196 2045.12 259.402 2045.14 256.518C2045.05 253.609 2044.01 251.434 2042.01 249.993C2040.01 248.552 2037.61 248.248 2034.82 249.081C2032.02 249.914 2029.66 251.682 2027.73 254.386C2025.83 256.993 2024.92 259.751 2025 262.66ZM2006.03 201.951C2013.41 194.866 2019.59 189.278 2024.55 185.185C2031.64 179.262 2038.31 174.367 2044.56 170.499L2047.29 168.879C2048.27 168.302 2049.15 167.859 2049.96 167.548L2052.8 166.11L2055.57 164.962C2060.33 163.292 2064.39 162.733 2067.76 163.284C2064.61 162.273 2060.41 162.383 2055.14 163.614L2052.12 164.543L2049.17 165.799C2048.36 166.11 2047.43 166.541 2046.36 167.092L2043.52 168.531C2037.2 171.864 2030.24 176.685 2022.64 182.993C2016.07 188.531 2009.99 194.35 2004.4 200.451C1998.38 207.059 1993.06 213.537 1988.44 219.885L1997.26 210.845C2000.59 207.471 2003.52 204.506 2006.03 201.951ZM2024.72 168.208C2045.43 152.981 2061.83 147.946 2073.92 153.103C2085.99 158.357 2094.98 172.367 2100.92 195.133C2106.06 215.327 2108.13 239.114 2107.1 266.496C2106.13 292.86 2102.61 315.683 2096.54 334.966C2090.03 355.58 2082.13 366.709 2072.84 368.354C2064.95 369.74 2057.86 368.028 2051.56 363.219C2046.83 359.533 2042 353.605 2037.08 345.434L2034.24 340.219L2031.36 335.15C2029.05 330.847 2027.28 327.711 2026.03 325.741C2022.02 319.247 2018.22 315.542 2014.64 314.626C2011.15 313.734 2006.15 315.342 1999.63 319.45C1997.79 320.628 1994.78 322.695 1990.62 325.653L1985.73 329.044C1983.86 330.318 1982.12 331.472 1980.51 332.505C1972.27 337.718 1964.92 340.841 1958.46 341.871C1949.85 343.278 1941.84 341.331 1934.43 336.03C1924.56 329.068 1923.57 314.375 1931.48 291.952C1938.67 271.512 1951.32 249.272 1969.44 225.233C1987.7 201.025 2006.13 182.017 2024.72 168.208Z" fill="#28BF0F"/>
<path d="M2254.95 243.076C2258.95 240.004 2262.67 237.468 2266.09 235.466C2270.06 233.121 2274.19 231.361 2278.5 230.187C2271.06 231.247 2262.78 234.972 2253.64 241.362C2246.72 246.185 2240.01 252.401 2233.52 260.008C2231.07 262.868 2228.22 266.437 2224.97 270.715L2220.71 276.234L2216.65 281.66C2213.02 286.125 2209.9 289.234 2207.3 290.988C2205.27 292.302 2203.24 293.143 2201.22 293.51C2199.35 293.719 2197.13 293.437 2194.54 292.662C2197 293.815 2199.25 294.319 2201.31 294.174C2203.46 294.061 2205.69 293.395 2208.01 292.177C2210.89 290.52 2214.36 287.476 2218.4 283.046C2220.43 280.783 2223.31 277.278 2227.04 272.529L2231.39 267.2L2235.69 262.012C2241.7 254.876 2248.12 248.564 2254.95 243.076ZM2150.21 255.889C2154.02 248.107 2157.55 241.603 2160.81 236.378L2161.53 235.197L2162.29 233.875L2163.92 231.42C2165.26 229.343 2166.49 227.438 2167.61 225.707C2170.7 221.271 2173.66 217.529 2176.49 214.481C2184.35 206.282 2192.03 203.091 2199.54 204.907C2193.71 202.5 2187.45 203.694 2180.75 208.487C2178.15 210.241 2175.51 212.563 2172.84 215.454C2170.83 217.622 2168.71 220.121 2166.49 222.951C2155.4 237.229 2146.76 254.872 2140.56 275.88L2145.41 265.813L2150.21 255.889ZM2272.78 219.534C2287.5 215.359 2299.47 218.799 2308.69 229.853C2316.03 238.683 2318.82 254.833 2317.07 278.301C2315.45 300.127 2310.39 323.37 2301.89 348.029C2293.3 373.288 2283.49 393.278 2272.46 407.998C2260.01 424.448 2248.27 430.854 2237.27 427.215C2220.3 421.548 2216.03 407.269 2224.45 384.379C2225.83 380.628 2227.58 376.42 2229.7 371.756C2230.46 370.117 2231.38 368.211 2232.43 366.037L2233.82 363.344L2234.98 360.886C2238.5 353.64 2239.71 349.618 2238.61 348.822C2237.47 348.119 2236.42 348.129 2235.43 348.849C2234.77 349.256 2233.06 350.999 2230.33 354.079C2228.8 355.776 2227.32 357.331 2225.89 358.744C2223.92 360.818 2221.83 362.906 2219.64 365.01C2213.76 370.504 2206.98 376.324 2199.29 382.47C2190.34 389.556 2180.84 394.19 2170.81 396.371C2160.21 398.675 2150.66 397.747 2142.15 393.586C2113.01 379.027 2106.84 344.26 2123.65 289.284C2132.78 259.352 2144.24 235.28 2158.04 217.068C2172.34 198.292 2185.89 190.128 2198.67 192.577C2208.96 194.6 2215.26 199.806 2217.58 208.194C2220.55 218.704 2216.98 233.85 2206.87 253.633C2201.4 264.438 2198.15 271.512 2197.12 274.856C2196.08 278.515 2196.72 280.842 2199.02 281.835C2200.31 282.381 2202.13 281.523 2204.48 279.262C2206.2 277.63 2208.84 274.518 2212.41 269.926L2213.56 268.416L2214.89 266.813L2217.43 263.558C2219.46 260.979 2221.3 258.7 2222.92 256.719C2227.44 251.185 2231.74 246.472 2235.81 242.578C2248.36 230.49 2260.69 222.808 2272.78 219.534ZM2241.5 180.234L2234.35 178.436L2232.56 178.14L2230.71 177.987C2229.25 177.914 2228.02 178.128 2227.01 178.627C2228.68 178.353 2231.02 178.778 2234.01 179.903L2237.37 181.204L2240.92 182.411C2245.87 183.99 2250.8 184.716 2255.69 184.588C2258.57 184.511 2261.08 184.258 2263.24 183.829C2265.99 183.182 2268.38 182.36 2270.41 181.361C2272.06 180.55 2274.18 179.267 2276.78 177.514L2278.26 176.433C2278.8 176.088 2279.31 175.839 2279.78 175.684C2280.26 175.529 2280.81 175.453 2281.44 175.457L2282.39 175.463L2283.29 175.611L2282.44 175.321L2281.59 175.031C2280.89 174.901 2280.21 174.881 2279.55 174.971C2279.01 175 2278.43 175.17 2277.79 175.482L2276.08 176.324L2272.71 177.868C2271.56 178.429 2270.5 178.913 2269.52 179.317C2265.4 180.872 2260.8 181.681 2255.71 181.744C2251.45 181.876 2246.71 181.372 2241.5 180.234ZM2296.3 171.805C2299.4 176.659 2299.89 182.208 2297.76 188.451C2294.99 196.903 2289.25 203.077 2280.54 206.973C2272.71 210.432 2263.71 211.751 2253.54 210.93C2243.72 210.016 2235.11 207.402 2227.71 203.091C2219.9 198.428 2215.37 192.823 2214.11 186.274C2213.29 182.192 2213.61 178.449 2215.08 175.046C2216.78 170.98 2219.72 168.391 2223.9 167.279C2227.89 166.103 2233.28 166.563 2240.06 168.659L2242.04 169.335L2244.22 169.917C2245.86 170.37 2247.33 170.711 2248.62 170.94C2252.22 171.531 2255.73 171.616 2259.14 171.195C2261.36 170.893 2263.53 170.258 2265.65 169.292C2266.5 168.949 2267.39 168.513 2268.31 167.981L2270.88 166.48C2275.07 164.104 2279.04 163.134 2282.8 163.568C2288.83 164.142 2293.33 166.888 2296.3 171.805Z" fill="#28BF0F"/>
<path d="M2421.58 334.321C2426.52 332.774 2431.84 330.469 2437.54 327.406C2440.55 325.777 2443.09 324.329 2445.18 323.06L2447 321.894L2448.82 320.728C2450.24 319.716 2451.44 318.984 2452.4 318.533C2458.19 315.287 2463.54 314.524 2468.46 316.244C2466.11 314.886 2463.28 314.246 2459.97 314.324C2457.07 314.471 2454.2 315.176 2451.35 316.438C2450.26 316.941 2448.96 317.678 2447.44 318.65L2445.68 319.678L2443.72 320.784C2441.37 322.156 2438.91 323.533 2436.34 324.916C2431.07 327.733 2425.92 330.164 2420.87 332.209C2414.42 334.728 2408.98 336.324 2404.54 336.996C2409.56 337.234 2415.24 336.342 2421.58 334.321ZM2389.31 276.15C2391.84 274.859 2394.28 274.02 2396.63 273.632C2399.12 273.193 2401.67 273.332 2404.31 274.049C2402.1 272.863 2399.47 272.258 2396.43 272.233C2393.75 272.368 2391.07 272.996 2388.4 274.116C2384.28 275.801 2379.83 278.867 2375.04 283.316C2371.36 286.724 2367.81 290.729 2364.37 295.333C2361.6 298.919 2358.74 303.448 2355.8 308.922L2360.93 302.823L2366.05 296.725C2370.54 291.71 2374.18 287.901 2376.95 285.3C2381.53 281.086 2385.65 278.036 2389.31 276.15ZM2423.17 373.64C2420.53 374.445 2420.59 376.657 2423.37 380.275C2438.7 400.306 2446.55 420.985 2446.91 442.311C2446.98 452.375 2445.17 461.349 2441.5 469.231C2437.66 477.48 2432.06 483.916 2424.69 488.54C2418.09 492.632 2411.37 494.538 2404.51 494.259C2397.73 493.797 2391.74 491.28 2386.54 486.711C2381.15 481.838 2377.3 475.186 2374.99 466.756C2372.6 457.525 2372.33 446.934 2374.19 434.982C2377.1 416.4 2376.98 403.854 2373.83 397.346C2372.63 394.856 2371.28 393.828 2369.78 394.262C2368.37 394.736 2367.31 396.289 2366.59 398.921L2366.41 399.332L2366.31 399.942L2365.9 401.237C2365.61 402.416 2365.26 403.574 2364.87 404.713C2363.99 407.71 2363.07 410.688 2362.1 413.646C2359.17 422.072 2355.92 429.374 2352.34 435.551C2341.68 453.899 2329.52 460.354 2315.86 454.914C2300.98 449.045 2295.49 433.929 2299.41 409.568C2302.55 389.452 2311.61 365.055 2326.58 336.376C2341.51 307.788 2355.76 287.356 2369.32 275.081C2386.22 259.684 2401.69 257.245 2415.73 267.766C2422.53 272.926 2425.41 279.537 2424.39 287.598C2423.09 297.285 2416.14 307.548 2403.53 318.388C2400.4 321.052 2399.18 323.082 2399.88 324.479C2400.61 325.784 2402.91 326.138 2406.78 325.539C2416.42 324.201 2428.17 319.043 2442.04 310.063C2450.23 304.816 2458.22 302.756 2466.02 303.883C2473.01 304.872 2478.77 308.16 2483.3 313.748C2487.74 319.296 2489.86 325.677 2489.64 332.892C2489.36 340.737 2486.41 347.844 2480.78 354.214C2474.73 361.053 2467.28 365.972 2458.44 368.97C2452.51 371.06 2445.36 372.294 2437.02 372.671C2435.9 372.728 2434.42 372.735 2432.59 372.694L2430.58 372.796L2428.71 372.957C2426.07 373.001 2424.22 373.229 2423.17 373.64Z" fill="#28BF0F"/>
<path d="M2646.25 409.723C2649.41 408.364 2652.31 407.432 2654.95 406.928C2658.52 406.051 2661.52 406.114 2663.95 407.117C2661.86 405.738 2658.81 405.178 2654.8 405.437C2652.04 405.752 2648.94 406.443 2645.49 407.509C2640.98 408.983 2635.23 411.523 2628.26 415.13L2620.04 419.443C2616.52 421.4 2613.8 422.906 2611.88 423.961C2608.56 425.577 2605.76 426.74 2603.46 427.451C2600.42 428.416 2597.4 428.688 2594.38 428.265C2596.95 429.234 2600.09 429.443 2603.81 428.892C2606.15 428.318 2609.14 427.327 2612.8 425.919C2615.25 424.951 2618.09 423.634 2621.32 421.967L2625.47 419.746L2629.54 417.654C2636.05 414.234 2641.62 411.59 2646.25 409.723ZM2502.8 472.181L2510.1 471.695C2516.19 471.29 2521.19 470.461 2525.1 469.207C2523.03 469.354 2520.53 469.421 2517.62 469.41L2513.92 469.447L2510.09 469.407C2504.17 469.333 2499.16 469.511 2495.05 469.941C2488.89 470.654 2483.93 471.912 2480.15 473.714C2477.76 474.956 2475.6 476.396 2473.68 478.034C2471.77 480.032 2470.24 482.082 2469.08 484.186C2471.14 481.932 2472.99 480.242 2474.6 479.117C2476.49 477.925 2478.62 476.819 2480.99 475.8C2484.87 474.409 2489.65 473.451 2495.34 472.924C2497.25 472.674 2499.73 472.427 2502.8 472.181ZM2537.6 359.385C2539.65 357.354 2541.83 355.871 2544.15 354.938C2549.21 352.746 2554.58 352.664 2560.24 354.691C2557.99 352.625 2555.28 351.398 2552.13 351.009C2549.12 350.586 2546.13 350.995 2543.16 352.235C2540.13 353.56 2537.72 355.427 2535.91 357.837C2533.97 360.28 2532.81 362.966 2532.44 365.895C2534.04 363.245 2535.76 361.075 2537.6 359.385ZM2650.11 395.239C2658.19 393.471 2664.79 394.139 2669.92 397.243C2679.89 403.159 2683.97 411.761 2682.16 423.048C2680.06 436.373 2669.79 452.76 2651.36 472.209C2633.33 491.197 2608.48 507.64 2576.83 521.538C2541.64 537.033 2512.75 541.918 2490.17 536.194C2473.39 531.879 2462.13 523.662 2456.38 511.54C2453.86 506.047 2452.87 500.362 2453.39 494.486C2453.96 488.524 2456 482.928 2459.52 477.697C2464.1 470.894 2470.43 466.025 2478.52 463.091C2484.25 460.954 2491.75 459.654 2501.03 459.193L2506.55 459.034L2509.25 458.916L2511.75 458.848C2515.79 458.726 2518.97 458.49 2521.29 458.139C2527.6 457.169 2531.61 454.982 2533.32 451.578C2534.92 448.346 2535.16 443.702 2534.04 437.648C2533.28 433.687 2531.51 427.356 2528.71 418.656L2526.98 413.406L2525.33 408.027C2524.1 403.892 2523.08 400.178 2522.27 396.884C2520.23 388.29 2519.24 380.746 2519.32 374.251C2519.56 365.169 2522.28 357.587 2527.48 351.506C2532.33 345.801 2538.38 342.276 2545.62 340.933C2552.85 339.59 2559.63 340.832 2565.96 344.661C2572.94 348.767 2578.05 355.367 2581.31 364.463C2583.36 370.143 2585.21 376.345 2586.87 383.07C2587.42 385.625 2588 388.429 2588.61 391.482C2588.88 392.58 2589.16 393.858 2589.44 395.316L2589.82 397.297L2590.15 399.072C2592.3 409.602 2594.36 415.463 2596.33 416.653C2598.26 417.706 2602.33 416.779 2608.52 413.872C2610.48 412.954 2613.52 411.406 2617.64 409.228L2620.04 407.875L2622.64 406.471L2627.97 403.741C2636.8 399.387 2644.18 396.553 2650.11 395.239Z" fill="#28BF0F"/>
</svg>
