<svg width="3804" height="938" viewBox="0 0 3804 938" fill="none" xmlns="http://www.w3.org/2000/svg">
<g filter="url(#filter0_d_731_271)">
<path d="M3656.34 444.696C3539.37 327.799 3396.45 348.455 3294.44 348.455C3271.08 348.455 3248.76 351.424 3228.21 356.5C3173.29 254.789 3129.28 200.315 2988.27 160.334C2895.22 133.954 2758.24 121.353 2682.23 192.319C2569.72 105.361 2398.2 35.8946 2217.18 16.9038C2061.03 0.522062 1866.43 8.80979 1794.13 91.3677C1684.58 41.2775 1515.38 35.8946 1371.09 35.8946C1143.85 35.8946 1070 90.4489 948.329 202.314C892.001 184.404 770.817 190.82 703.844 190.82C490.507 190.82 371.891 295.108 341.731 427.852C252.286 452.85 -30.6649 585.609 14.938 731.557C48.674 839.527 120.512 861.587 216.961 853.998C285.711 848.589 341.975 785.531 459.488 785.531C574.43 785.531 636.724 687.079 703.844 687.079C849.625 717.093 893.627 559.314 948.329 542.649C1122.78 578.132 1405.09 612.115 1556.11 459.189C1610.37 501.139 1794.43 503.668 1885.5 503.668C2012.65 503.668 2063.67 459.189 2120.97 431.203C2204.51 476.313 2331.45 559.456 2491.59 585.129C2607.96 603.783 2811.94 585.129 2811.94 585.129C2811.94 585.129 2900.81 692.112 2962.26 719.063C3101.28 780.034 3200.15 746.05 3294.44 746.05C3356.31 797.525 3496.82 920.466 3670.17 906.972C3758.46 900.101 3815.86 823.013 3735.85 690.078C3752.71 580.958 3717.85 506.167 3656.34 444.696Z" fill="#FEFEF2"/>
</g>
<path d="M228.715 610.288C230.323 606.025 231.616 601.08 232.594 595.455C233.098 592.485 233.476 589.932 233.728 587.797L234.09 584.003C234.163 582.464 234.304 581.238 234.514 580.325C235.408 574.545 237.789 570.416 241.656 567.938C239.437 568.831 237.455 570.446 235.711 572.783C234.235 574.875 233.162 577.252 232.492 579.912C232.246 580.944 232.048 582.25 231.898 583.831L231.654 585.611L231.357 587.571C231.033 589.945 230.652 592.399 230.214 594.934C229.303 600.124 228.186 605.023 226.863 609.633C225.104 615.478 223.25 620.124 221.303 623.57C224.199 620.214 226.669 615.787 228.715 610.288ZM170.813 601.054C171.293 598.596 172.037 596.447 173.047 594.604C174.093 592.642 175.58 590.943 177.508 589.508C175.485 590.395 173.637 591.887 171.965 593.986C170.603 595.917 169.584 598.115 168.908 600.578C167.836 604.353 167.543 609.11 168.027 614.85C168.392 619.253 169.238 623.898 170.564 628.785C171.544 632.658 173.133 637.103 175.33 642.123L172.443 628.375C171.405 622.534 170.738 617.943 170.443 614.601C170.006 609.137 170.13 604.621 170.813 601.054ZM256.855 630.565C255.976 632.837 257.546 633.993 261.567 634.032C283.799 634.285 302.411 640.083 317.403 651.426C324.419 656.855 329.663 662.987 333.134 669.821C336.772 676.965 338.191 684.352 337.391 691.981C336.645 698.781 334.31 704.485 330.387 709.093C326.38 713.546 321.378 716.333 315.382 717.455C309.07 718.547 302.363 717.601 295.261 714.618C287.557 711.258 280.064 705.685 272.782 697.899C261.471 685.778 252.703 679.041 246.476 677.687C244.097 677.166 242.65 677.543 242.136 678.819C241.699 680.054 242.199 681.635 243.634 683.563L243.822 683.913L244.189 684.316L244.868 685.301C245.523 686.148 246.14 687.017 246.717 687.906C248.32 690.145 249.884 692.404 251.409 694.685C255.662 701.298 258.958 707.527 261.297 713.369C268.23 730.742 266.099 742.686 254.902 749.202C242.738 756.338 229.27 751.925 214.497 735.966C202.251 722.848 190.249 703.299 178.491 677.32C166.776 651.418 160.347 630.425 159.204 614.341C157.708 594.247 164.427 582.188 179.361 578.163C186.635 576.254 192.789 577.847 197.825 582.94C203.838 589.108 207.178 599.512 207.845 614.153C207.991 617.774 208.737 619.723 210.085 619.998C211.392 620.196 212.887 618.793 214.572 615.788C218.886 608.37 221.697 597.411 223.004 582.91C223.818 574.374 226.735 567.707 231.756 562.909C236.24 558.6 241.652 556.392 247.993 556.284C254.257 556.219 259.832 558.222 264.72 562.295C270.013 566.75 273.339 572.663 274.698 580.031C276.153 587.949 275.516 595.79 272.789 603.555C271.012 608.809 267.986 614.435 263.709 620.433C263.142 621.237 262.344 622.266 261.317 623.518L260.296 624.966L259.391 626.352C257.987 628.206 257.142 629.611 256.855 630.565Z" fill="#BD1622"/>
<path d="M408.296 614.218C409.996 612.199 411.163 609.744 411.795 606.852C413.016 601.187 411.946 596.115 408.584 591.639C409.973 597.098 410.203 602.016 409.272 606.393C408.208 611.119 405.805 615.336 402.064 619.044C404.546 618.122 406.624 616.514 408.296 614.218ZM378.798 596.906C378.471 600.046 379.233 603.035 381.087 605.872C382.94 608.709 385.366 610.564 388.365 611.438C391.364 612.311 394.059 611.97 396.45 610.413C398.841 608.857 400.2 606.508 400.527 603.368C400.971 600.272 400.227 597.323 398.293 594.523C396.44 591.686 394.014 589.831 391.014 588.957C387.979 588.003 385.266 588.304 382.875 589.861C380.521 591.497 379.162 593.846 378.798 596.906ZM321.504 534.145C324.304 527.48 328.238 521.513 333.306 516.243C337.884 511.387 343.702 507.036 350.761 503.19L345.645 505.342L343.168 506.6L340.746 507.977C337.427 510.047 334.476 512.29 331.892 514.706C326.519 519.726 322.281 525.878 319.18 533.161C316.255 539.978 314.593 547.242 314.194 554.953C313.767 562.387 314.368 569.745 315.997 577.027L315.694 571.515L315.511 565.948L315.678 560.515L316.139 555.093C317.137 547.21 318.925 540.227 321.504 534.145ZM311.98 527.125C322.224 505.434 341.131 492.066 368.7 487.022C393.328 482.526 414.059 488.808 430.893 505.87C445.797 520.998 455.177 541.455 459.033 567.242C462.798 592.394 460.247 614.879 451.381 634.696C441.647 656.448 426.501 668.948 405.946 672.193C384.077 675.74 363.751 669.178 344.969 652.509C327.552 637.158 315.483 617.378 308.762 593.167C301.913 568.242 302.986 546.228 311.98 527.125Z" fill="#BD1622"/>
<path d="M660.983 510.026C662.677 507.386 663.393 504.48 663.13 501.308C662.871 498.414 661.918 495.668 660.27 493.07C660.898 496.489 661.155 499.243 661.042 501.334C660.881 504.094 660.146 506.54 658.835 508.674C657.634 510.583 655.777 512.487 653.266 514.384C651.638 515.603 649.317 517.108 646.304 518.9C649.139 518.475 651.843 517.536 654.416 516.083C657.209 514.46 659.398 512.441 660.983 510.026ZM627.029 494.405C626.62 501.82 627.712 506.709 630.304 509.072C632.697 511.132 636.737 511.22 642.424 509.339C648.11 507.457 651.231 505.301 651.786 502.87C652.155 501.25 651.766 499.054 650.617 496.283C649.526 493.678 647.99 491.135 646.009 488.652C641.169 482.501 636.738 480.077 632.716 481.381C629.359 482.454 627.463 486.795 627.029 494.405ZM581.575 454.526C582.432 447.329 583.726 440.585 585.458 434.296C587.375 427.196 589.845 420.884 592.867 415.359C596.708 408.43 601.383 403.636 606.893 400.977C603.786 401.963 600.799 403.699 597.934 406.186C595.346 408.67 593.068 411.373 591.099 414.294C587.795 419.545 585.09 425.985 582.985 433.616C581.097 440.799 579.958 447.722 579.567 454.384C579.184 461.604 579.354 468.538 580.078 475.186C580.422 467.048 580.921 460.161 581.575 454.526ZM560.572 555.948C561.445 554.433 562.706 552.829 564.356 551.137C565.344 549.955 566.802 548.516 568.731 546.821L571.168 544.576L573.48 542.374C569.291 543.735 565.63 546.079 562.496 549.405C560.654 551.351 559.438 553.218 558.848 555.008C557.931 557.471 558.015 559.726 559.099 561.774C559.017 559.658 559.508 557.716 560.572 555.948ZM702.331 482.099C704.436 483.326 707.311 483.819 710.957 483.579C723.927 482.804 733.973 485.422 741.095 491.434C748.387 497.666 751.015 506.171 748.977 516.949C746.837 528.508 736.734 539.15 718.667 548.875C706.493 555.434 688.282 562.597 664.035 570.366C637.4 578.777 614.368 583.466 594.938 584.433C573.197 585.457 559.22 581.453 553.007 572.422C548.554 566.043 547.416 559.678 549.593 553.327C551.984 546.25 558.197 539.71 568.233 533.707C571.771 531.545 574.026 529.177 574.996 526.602C575.887 524.335 576.041 521.018 575.457 516.652C575.244 515.234 574.811 512.913 574.158 509.69L573.883 507.688L573.395 505.48C573.096 503.812 572.84 502.269 572.627 500.851C571.214 492.484 570.301 484.083 569.889 475.648C568.872 454.462 571.58 435.946 578.011 420.099C584.388 404.364 593.111 394.714 604.18 391.15C617.108 387.033 630.441 389.582 644.176 398.798C658.841 408.81 672.239 425.509 684.369 448.896C685.908 451.718 687.337 454.625 688.656 457.617C689.657 459.694 690.746 462.159 691.923 465.014C694.362 470.694 696.051 474.35 696.991 475.982C698.588 478.97 700.368 481.009 702.331 482.099Z" fill="#BD1622"/>
<path d="M825.612 338.917C826.244 337.273 827.081 336.028 828.123 335.183C829.08 334.362 830.454 333.559 832.246 332.776C830.358 333.221 828.881 333.823 827.815 334.584C826.495 335.416 825.38 336.649 824.47 338.28C823.244 340.735 822.622 344.024 822.603 348.15C822.764 353.232 823.97 359.574 826.22 367.176L826.906 369.59L827.682 371.842C828.188 373.622 828.566 375.116 828.818 376.327C829.491 379.34 829.728 382.432 829.529 385.602C829.034 392.243 826.291 397.738 821.3 402.085C824.025 400.396 826.303 398.101 828.134 395.2C829.821 392.432 830.908 389.33 831.398 385.895C831.899 382.823 831.826 379.501 831.178 375.931C830.963 374.527 830.548 372.905 829.934 371.065L828.635 366.49C826.396 359.251 825.057 353.084 824.618 347.99C824.37 344.215 824.701 341.191 825.612 338.917ZM739.789 376.201C740.1 371.168 741.292 366.663 743.368 362.686C745.698 357.995 749.048 354.801 753.418 353.102C751.143 353.473 748.898 354.431 746.681 355.976C744.634 357.473 742.931 359.376 741.573 361.685C739.05 365.698 737.621 370.499 737.285 376.088C736.785 385.936 737.767 395.683 740.232 405.33L739.935 397.997L739.675 390.792C739.563 385.238 739.601 380.375 739.789 376.201ZM813.978 340.024C815.468 331.726 820.461 326.096 828.959 323.134C840.906 319.1 852.82 324.461 864.701 339.217C876.135 353.367 884.899 372.624 890.993 396.989C898.963 428.605 902.67 451.817 902.113 466.625C901.415 487.059 893.567 499.405 878.571 503.664C869.675 506.191 861.88 504.696 855.187 499.18C847.841 493.3 842.564 483.262 839.357 469.064C837.338 460.664 834.432 454.943 830.638 451.9C827.702 449.62 824.327 449.022 820.515 450.105C812.72 452.318 811.641 461.095 817.278 476.433C824.975 497.413 821.026 511.399 805.433 518.391C798.435 521.477 791.219 521.375 783.784 518.084C774.68 514.077 766.492 505.552 759.218 492.509C749.386 474.974 741.638 455.748 735.974 434.832C730.093 413.153 727.572 393.634 728.411 376.273C728.788 367.284 731.305 359.702 735.96 353.527C740.737 347.134 747.107 343.449 755.069 342.469C764.967 341.215 772.9 343.357 778.867 348.896C785.584 355.138 790.254 365.944 792.879 381.314C793.862 386.712 795.882 390.762 798.939 393.465C801.971 396.083 805.611 396.972 809.859 396.132C814.107 395.292 817.104 393.113 818.852 389.595C820.988 385.509 821.015 380.282 818.932 373.915C814.068 359.364 812.417 348.067 813.978 340.024Z" fill="#BD1622"/>
<path d="M1086.12 398.01C1088.09 396.313 1089.69 394.157 1090.92 391.542C1093.25 386.158 1093.24 380.975 1090.88 375.993C1091.13 381.621 1090.34 386.439 1088.51 390.448C1086.61 394.925 1083.45 398.596 1079.03 401.463C1081.55 401 1083.91 399.849 1086.12 398.01ZM1060.65 375.071C1059.66 377.992 1059.79 381.031 1061.03 384.186C1062.26 387.341 1064.26 389.653 1067.02 391.12C1069.79 392.674 1072.5 392.889 1075.14 391.767C1077.8 390.732 1079.62 388.753 1080.6 385.831C1081.65 382.805 1081.55 379.714 1080.32 376.559C1079.08 373.404 1077.08 371.092 1074.33 369.625C1071.57 368.157 1068.86 367.942 1066.2 368.977C1063.55 370.013 1061.69 372.044 1060.65 375.071ZM1017.49 301.909C1021.59 295.956 1026.66 290.917 1032.7 286.793C1038.08 282.992 1044.67 279.92 1052.45 277.576L1047 278.64L1044.32 279.365L1041.67 280.219C1037.91 281.587 1034.53 283.233 1031.53 285.157C1025.22 288.889 1019.81 294.004 1015.29 300.5C1011.12 306.558 1008.05 313.321 1006.09 320.788C1004.07 327.997 1003.1 335.289 1003.19 342.665L1004.02 337.207L1005.14 331.821L1006.41 326.535L1007.97 321.322C1010.47 313.828 1013.64 307.357 1017.49 301.909ZM908.821 320.143C909.036 317.841 909.733 315.884 910.911 314.272C913.335 310.943 916.932 308.437 921.703 306.756C916.428 307.376 912.33 309.45 909.409 312.979C907.887 314.667 906.894 316.915 906.429 319.723C906.091 321.871 906.119 324.255 906.515 326.874C907.146 330.974 908.656 335.376 911.044 340.082C912.824 343.659 915.266 347.585 918.371 351.862L912.895 339.269C910.842 334.039 909.552 329.813 909.023 326.592C908.665 324.146 908.598 321.996 908.821 320.143ZM1012.46 289.489C1026.82 272.799 1047.06 264.782 1073.18 265.438C1098.12 266.082 1117.09 276.472 1130.09 296.61C1141.59 314.461 1146.64 336.35 1145.22 362.276C1143.77 387.667 1136.68 409.158 1123.96 426.749C1109.99 446.057 1092.66 455.193 1071.96 454.157C1060.39 453.636 1049.61 450.327 1039.61 444.231C1030.22 438.45 1022 430.609 1014.95 420.706C1013.11 418.046 1008.76 417.153 1001.92 418.028C997.61 418.525 993.991 420.314 991.061 423.394C988.027 426.407 986.3 430.033 985.88 434.274C984.561 448.364 981.706 459.364 977.315 467.275C972.558 475.988 966.249 480.307 958.387 480.234C953.152 480.213 949.287 478.223 946.792 474.263C944.726 471.02 942.904 465.198 941.326 456.796C941.071 455.229 940.722 453.232 940.278 450.804L939.798 447.392L939.188 444.009C938.14 438.017 937.177 432.817 936.297 428.411C933.584 414.849 930.095 401.863 925.831 389.453C924.074 384.338 921.145 377.993 917.043 370.418L914.388 365.726L911.603 361.063C909.385 357.132 907.658 353.995 906.421 351.651C898.408 336.549 895.601 324.405 897.998 315.22C899.356 310.321 902.221 306.128 906.594 302.641C910.967 299.153 916.134 297.024 922.097 296.252C928.385 295.32 934.583 296.03 940.693 298.383C947.498 301.034 953.56 305.427 958.878 311.562C965.931 319.841 971.942 332.407 976.913 349.26C977.54 351.287 978.735 352.828 980.5 353.882C982.266 354.937 984.147 355.289 986.144 354.94L986.273 354.912C988.184 354.581 989.748 353.696 990.964 352.256C992.181 350.816 992.762 349.155 992.709 347.272C993.082 323.561 999.666 304.299 1012.46 289.489Z" fill="#BD1622"/>
<path d="M1311.68 308.037C1313.39 305.738 1314.53 303.254 1315.12 300.586C1315.78 297.818 1315.79 295.19 1315.16 292.701C1314.26 298.086 1312.41 302.722 1309.6 306.607C1308.28 308.581 1306.63 310.338 1304.63 311.879C1302.72 313.407 1300.49 314.625 1297.96 315.532C1300.56 315.683 1303.14 315.037 1305.68 313.594C1307.98 312.276 1309.98 310.424 1311.68 308.037ZM1294.36 286.548C1292.26 288.015 1290.75 290.151 1289.83 292.958C1288.98 295.664 1288.92 298.256 1289.64 300.732C1290.43 303.107 1291.81 304.64 1293.78 305.329C1295.76 306.018 1297.79 305.63 1299.89 304.164C1301.9 302.71 1303.37 300.58 1304.29 297.773C1305.23 295.054 1305.33 292.456 1304.61 289.98C1303.82 287.604 1302.43 286.072 1300.46 285.383C1298.49 284.693 1296.46 285.082 1294.36 286.548ZM1248.57 257.631C1252.16 252.384 1256.72 247.93 1262.23 244.269C1267.01 241.072 1272.94 238.419 1280.02 236.309C1277.06 236.745 1273.83 237.487 1270.33 238.536C1267.11 239.633 1264.07 241.016 1261.2 242.685C1255.36 245.949 1250.46 250.454 1246.49 256.201C1242.77 261.735 1240.1 267.825 1238.5 274.471C1237.72 277.614 1237.13 280.905 1236.75 284.345C1236.42 288.133 1236.32 291.397 1236.45 294.137C1237.41 286.696 1238.69 280.319 1240.31 275.006C1242.44 268.282 1245.19 262.491 1248.57 257.631ZM1243.14 246.144C1253.11 234.616 1266.86 227.651 1284.4 225.247C1301.17 223.046 1315.36 225.72 1326.98 233.269C1337.71 240.237 1344.81 250.098 1348.29 262.851C1351.75 275.43 1350.99 288.139 1346.02 300.978C1340.75 314.753 1331.54 325.991 1318.4 334.691C1314.43 337.324 1312.14 340.51 1311.53 344.25C1311 347.267 1311.49 351.244 1313.02 356.183C1313.34 357.116 1313.72 358.217 1314.17 359.486L1315.37 363.049C1316.46 366.271 1317.32 368.771 1317.94 370.55C1319.85 376.857 1320.82 382.59 1320.87 387.747C1321.08 395.195 1319.19 401.437 1315.21 406.474C1311.24 411.511 1306.02 414.193 1299.57 414.519C1292.42 414.948 1284.88 412.408 1276.95 406.898C1267.93 400.658 1259.19 391.128 1250.71 378.309C1241.9 365.005 1235.35 350.166 1231.07 333.791C1226.63 316.906 1225.27 300.992 1226.98 286.049C1228.84 269.66 1234.23 256.359 1243.14 246.144Z" fill="#BD1622"/>
<path d="M1449.41 340.705C1451.66 339.312 1453.52 337.338 1455.02 334.784C1457.93 329.774 1458.49 324.621 1456.67 319.324C1456.31 324.945 1455 329.692 1452.76 333.566C1450.29 337.732 1446.7 340.999 1441.99 343.367C1444.64 343.259 1447.11 342.371 1449.41 340.705ZM1426.72 315.116C1425.44 318.001 1425.24 321.079 1426.12 324.35C1427.01 327.621 1428.74 330.136 1431.32 331.895C1433.9 333.654 1436.57 334.163 1439.33 333.423C1442.08 332.682 1444.1 330.869 1445.38 327.985C1446.76 325.178 1446.97 322.143 1446 318.882C1445.11 315.611 1443.38 313.096 1440.8 311.337C1438.2 309.491 1435.53 308.938 1432.78 309.678C1430.03 310.506 1428.01 312.319 1426.72 315.116ZM1391.65 237.706C1396.38 232.235 1401.97 227.778 1408.41 224.335C1414.27 221.133 1421.15 218.796 1429.05 217.323L1423.52 217.787L1420.78 218.216L1418.05 218.777C1414.25 219.718 1410.75 220.938 1407.55 222.435C1400.88 225.547 1394.95 230.086 1389.75 236.052C1384.86 241.629 1381.03 248.023 1378.26 255.232C1375.56 262.168 1373.85 269.351 1373.15 276.781L1374.57 271.445L1376.12 266.095L1377.95 260.979L1380.07 255.967C1383.46 248.779 1387.32 242.692 1391.65 237.706ZM1384.77 228.084C1401.22 210.627 1423.34 203.765 1451.11 207.499C1475.92 210.844 1493.69 223.233 1504.42 244.666C1513.92 263.663 1516.51 286.019 1512.2 311.734C1507.99 336.817 1498.61 357.409 1484.05 373.51C1468.06 391.184 1449.79 398.383 1429.24 395.109C1407.35 391.715 1390.05 379.186 1377.35 357.523C1365.53 337.536 1360.18 314.992 1361.28 289.89C1362.48 264.068 1370.31 243.466 1384.77 228.084Z" fill="#BD1622"/>
<path d="M1694.41 208.259C1693.03 210.367 1691.88 212.683 1690.97 215.205C1690.05 217.728 1689.49 220.187 1689.27 222.581L1691.07 219.302L1692.73 215.898C1694.09 213.438 1695.33 211.338 1696.47 209.596C1697.93 207.483 1699.51 205.672 1701.19 204.164C1703.12 202.465 1705.21 201.287 1707.47 200.628C1705.07 200.324 1702.59 200.996 1700.04 202.642C1697.99 203.906 1696.12 205.779 1694.41 208.259ZM1635.39 201.323C1636.24 200.832 1637.06 200.433 1637.83 200.124L1639.13 199.652L1640.56 199.173C1639.49 198.97 1638.51 198.894 1637.63 198.944C1636.49 199.01 1635.44 199.202 1634.49 199.521C1632.5 200.253 1630.81 201.541 1629.42 203.385C1628.11 205.137 1627.34 207.078 1627.11 209.209C1626.87 211.339 1627.08 213.357 1627.72 215.261C1628.67 210.354 1629.93 206.885 1631.49 204.855C1632.47 203.475 1633.77 202.298 1635.39 201.323ZM1590.99 287.774C1592.69 286.617 1594.03 285.525 1595.03 284.498C1597.6 281.615 1598.7 278.508 1598.34 275.177C1598.09 278.543 1596.66 281.36 1594.06 283.627C1593.14 284.562 1591.87 285.473 1590.24 286.36L1585.88 288.728C1580.23 291.787 1574.77 295.674 1569.48 300.389C1564.12 305.372 1559.83 310.515 1556.6 315.817C1554.99 318.468 1553.48 321.422 1552.08 324.679C1550.77 328.018 1549.86 331.247 1549.33 334.365C1551.52 327.975 1554.49 322.114 1558.25 316.782C1562 311.537 1566.31 306.702 1571.18 302.277C1575.87 298.037 1581.07 294.077 1586.77 290.398L1588.94 289.082L1590.99 287.774ZM1555.11 223C1555.5 220.42 1556.21 218.217 1557.25 216.393C1559.64 211.933 1563.23 209.08 1568.01 207.835C1565.43 207.454 1562.9 207.996 1560.43 209.461C1558.29 210.731 1556.51 212.642 1555.06 215.195C1552.35 220.203 1552.24 225.238 1554.74 230.3C1554.66 227.305 1554.78 224.872 1555.11 223ZM1696.86 264.892C1695.46 266.648 1696.66 268.388 1700.47 270.111C1721.01 279.078 1735.99 291.806 1745.4 308.293C1749.82 316.069 1752.29 323.823 1752.82 331.556C1753.37 339.554 1751.77 346.968 1748.01 353.801C1744.65 359.816 1740.23 364.173 1734.74 366.87C1729.33 369.474 1723.59 370.113 1717.51 368.785C1711.16 367.296 1705.31 363.75 1699.96 358.146C1694.14 352.039 1689.35 343.932 1685.6 333.825C1685.07 332.268 1684.53 330.666 1684 329.021C1683.68 328.156 1683.28 327.297 1682.79 326.443C1682.2 325.418 1681.68 324.698 1681.21 324.284C1679.74 323.221 1678.91 324.945 1678.73 329.455C1678.1 344.666 1674.91 356.628 1669.14 365.34C1663.22 374.326 1655.35 378.615 1645.53 378.208C1632.54 377.719 1625.01 368.048 1622.96 349.197C1622.25 342.974 1622.2 335.919 1622.81 328.032C1623.09 325.281 1623.41 322.483 1623.78 319.639C1623.9 318.573 1624.01 317.508 1624.13 316.443C1624.19 316.086 1624.26 315.685 1624.32 315.24L1624.42 314.705L1624.53 314.302C1624.84 311.902 1624.39 310.252 1623.19 309.35C1621.9 308.365 1620.28 308.635 1618.34 310.158C1613.11 314.34 1608.76 324.603 1605.29 340.948C1603.21 350.86 1599.58 359.097 1594.4 365.658C1589.71 371.662 1584.17 375.73 1577.76 377.862C1571.62 379.979 1565.62 380.014 1559.77 377.968C1553.74 375.931 1548.8 372.068 1544.95 366.378C1540.61 360.01 1538.34 352.773 1538.14 344.668C1537.96 336.914 1539.76 328.959 1543.52 320.803C1551.45 303.585 1565.24 289.56 1584.91 278.726C1588.5 276.755 1589.14 274.778 1586.82 272.794C1585.89 272.053 1584.25 271 1581.87 269.636L1580.11 268.811L1578.33 267.855C1576.78 266.973 1575.51 266.296 1574.51 265.824C1567.32 261.914 1561.61 257.874 1557.41 253.704C1551.15 247.71 1547.05 240.755 1545.09 232.839C1543.18 225.626 1543.68 218.892 1546.58 212.638C1549.24 206.75 1553.37 202.5 1558.95 199.885C1564.79 197.168 1570.78 196.913 1576.9 199.12C1583.75 201.638 1589.74 206.897 1594.88 214.896C1602.83 227.321 1610.5 235.791 1617.91 240.307C1620.92 242.075 1622.98 242.575 1624.08 241.806C1625.18 240.949 1624.92 238.846 1623.32 235.497C1617.1 222.355 1615.93 211.305 1619.83 202.347C1621.48 198.724 1623.86 195.764 1627 193.467C1629.87 191.36 1633.02 190.033 1636.43 189.485C1647.01 187.819 1655.3 190.872 1661.3 198.645C1667.31 206.417 1670.78 218.481 1671.71 234.838C1671.93 238.531 1672.77 239.453 1674.26 237.603C1675.83 235.749 1677.08 232.192 1678.01 226.933C1679.37 219.797 1681.59 213.273 1684.69 207.36C1688.84 199.711 1694.02 194.65 1700.23 192.176C1705.75 189.919 1711.27 190.043 1716.8 192.549C1722.14 194.978 1726.12 199.028 1728.74 204.701C1731.57 210.891 1732.14 217.74 1730.45 225.248C1728.69 233.112 1725.21 240.105 1720.01 246.227C1717.94 248.64 1715.6 250.935 1712.99 253.114C1711.05 254.725 1708.77 256.444 1706.14 258.272C1700.45 262.039 1697.35 264.246 1696.86 264.892Z" fill="#BD1622"/>
<path d="M1878.37 312.885C1880.82 310.938 1882.45 308.422 1883.23 305.336C1883.92 302.515 1883.91 299.608 1883.19 296.616C1882.68 300.053 1882.03 302.742 1881.24 304.683C1880.19 307.241 1878.71 309.316 1876.77 310.909C1875.02 312.325 1872.64 313.522 1869.65 314.502C1867.72 315.126 1865.03 315.796 1861.6 316.513C1864.42 317.032 1867.28 317.021 1870.19 316.482C1873.36 315.854 1876.08 314.655 1878.37 312.885ZM1851.32 287.087C1848.53 293.968 1847.97 298.946 1849.66 302.023C1851.25 304.748 1855.05 306.143 1861.03 306.21C1867.02 306.276 1870.68 305.25 1871.99 303.131C1872.86 301.719 1873.21 299.515 1873.02 296.521C1872.84 293.703 1872.21 290.799 1871.14 287.808C1868.56 280.418 1865.16 276.687 1860.93 276.614C1857.4 276.539 1854.2 280.03 1851.32 287.087ZM1821.27 234.611C1824.42 228.082 1827.83 222.124 1831.51 216.737C1835.63 210.645 1840.01 205.476 1844.67 201.231C1850.55 195.925 1856.53 192.908 1862.6 192.181C1859.34 192.105 1855.95 192.778 1852.44 194.2C1849.18 195.709 1846.15 197.526 1843.34 199.65C1838.51 203.544 1833.86 208.757 1829.39 215.292C1825.28 221.472 1821.95 227.65 1819.42 233.825C1816.71 240.529 1814.62 247.143 1813.15 253.666C1816.12 246.081 1818.83 239.729 1821.27 234.611ZM1768.49 323.722C1769.8 322.572 1771.52 321.465 1773.63 320.4C1774.95 319.603 1776.79 318.715 1779.17 317.738L1782.2 316.406L1785.1 315.074C1780.7 315.002 1776.47 316.03 1772.43 318.159C1770.06 319.4 1768.3 320.772 1767.16 322.274C1765.49 324.306 1764.84 326.466 1765.2 328.755C1765.81 326.727 1766.91 325.049 1768.49 323.722ZM1926.54 299.894C1928.13 301.738 1930.69 303.138 1934.22 304.094C1946.74 307.572 1955.39 313.31 1960.17 321.308C1965.05 329.57 1964.77 338.467 1959.35 348C1953.57 358.238 1940.56 365.024 1920.32 368.357C1906.67 370.608 1887.12 371.472 1861.67 370.948C1833.74 370.257 1810.44 367.214 1791.75 361.821C1770.85 355.731 1758.93 347.407 1755.98 336.848C1753.84 329.369 1754.83 322.979 1758.95 317.679C1763.51 311.761 1771.51 307.592 1782.95 305.172C1787 304.277 1789.9 302.769 1791.66 300.648C1793.23 298.793 1794.46 295.706 1795.32 291.386C1795.58 289.976 1795.92 287.641 1796.35 284.38L1796.74 282.397L1797 280.15C1797.26 278.475 1797.51 276.933 1797.77 275.523C1799.15 267.15 1801.02 258.907 1803.36 250.795C1809.28 230.427 1817.85 213.792 1829.08 200.891C1840.22 188.079 1851.6 181.784 1863.23 182.006C1876.79 182.309 1888.57 189.048 1898.57 202.224C1909.19 216.455 1916.45 236.599 1920.33 262.658C1920.87 265.827 1921.28 269.04 1921.55 272.298C1921.82 274.587 1922.05 277.273 1922.24 280.355C1922.7 286.519 1923.11 290.526 1923.47 292.374C1924.01 295.719 1925.04 298.226 1926.54 299.894Z" fill="#BD1622"/>
<path d="M2080.86 320.325C2086.84 318.732 2092.13 317.55 2096.75 316.78C2094.39 316.237 2091.62 316.117 2088.44 316.421C2085.96 316.578 2083.21 317.076 2080.17 317.915C2079.11 318.134 2077.76 318.561 2076.15 319.196L2074.27 319.776L2072.39 320.489C2069.8 321.258 2067.13 321.848 2064.38 322.258C2066.91 322.897 2069.73 322.93 2072.84 322.359C2073.9 322.229 2075.24 321.934 2076.85 321.474L2080.86 320.325ZM2034.86 200.508C2038.2 198.8 2041.91 197.506 2046 196.625C2049.39 195.801 2053.38 195.312 2057.97 195.158C2054.11 194.727 2050.05 194.816 2045.79 195.425C2041.53 196.035 2037.61 197.144 2034.01 198.752C2030.33 200.356 2026.79 202.54 2023.41 205.303C2020.66 207.741 2018.01 210.977 2015.46 215.01C2011.66 221.37 2008.64 228.954 2006.41 237.762C2004.49 245.35 2003.27 253.364 2002.72 261.804L2003.91 255.772C2004.36 253.5 2004.8 251.535 2005.22 249.878C2006.11 245.772 2007.11 241.892 2008.24 238.238C2011.1 229.193 2014.23 221.878 2017.65 216.295C2019.92 212.602 2022.39 209.579 2025.05 207.225C2027.71 204.784 2030.98 202.544 2034.86 200.508ZM2068.32 267.811L2067.25 268.161L2065.24 268.736L2063.1 269.305C2064.4 269.802 2065.89 270.042 2067.56 270.027C2068.18 270.053 2068.93 269.997 2069.82 269.859L2070.75 269.767L2071.81 269.681C2073.05 269.558 2074.37 269.483 2075.79 269.456C2077.46 269.528 2078.82 269.719 2079.86 270.029C2079.12 268.85 2077.88 268.003 2076.13 267.487C2074.83 267.078 2073.29 266.968 2071.52 267.156C2070.9 267.217 2070.15 267.361 2069.25 267.587L2068.32 267.811ZM2060.76 311.126C2063.88 312.495 2067.76 312.398 2072.41 310.835C2087.61 305.849 2099.37 305.167 2107.67 308.788C2115.55 312.213 2119.22 318.984 2118.7 329.101C2118.28 336.665 2114.26 344.073 2106.63 351.326C2099.46 358.157 2090.36 363.671 2079.34 367.868C2068.04 372.229 2056.97 374.352 2046.14 374.237C2034.24 374.076 2024.32 371.178 2016.36 365.545C2008.32 359.82 2002.04 349.189 1997.51 333.653C1993.28 319.188 1991.17 302.786 1991.17 284.448C1991.26 266.026 1993.48 249.239 1997.84 234.086C2002.52 217.625 2009.11 205.744 2017.63 198.441C2026.7 190.545 2037.56 186.077 2050.21 185.036C2061.35 184.195 2072.34 185.992 2083.16 190.427C2093.47 194.751 2101.11 200.416 2106.1 207.419C2111.51 214.794 2112.53 221.891 2109.15 228.71C2107.13 232.679 2103.88 235.492 2099.4 237.15C2096.08 238.329 2091.51 239.013 2085.69 239.203L2081.98 239.307L2078.41 239.285C2075.5 239.336 2073.16 239.455 2071.39 239.643C2066.26 240.039 2062.42 241.107 2059.88 242.849C2058.15 244.009 2056.93 245.631 2056.23 247.717C2055.61 249.718 2055.57 251.7 2056.1 253.662C2057.58 258.31 2061.25 260.012 2067.12 258.767C2074.06 257.303 2079.94 258.042 2084.75 260.983C2089.47 263.832 2091.89 267.992 2092.01 273.463C2092.11 279.374 2089.96 284.13 2085.58 287.732C2080.91 291.674 2073.85 293.882 2064.4 294.355C2061.13 294.567 2058.69 295.828 2057.09 298.139C2055.5 300.363 2055.04 302.768 2055.72 305.354C2056.4 308.116 2058.08 310.04 2060.76 311.126Z" fill="#BD1622"/>
<path d="M2249.03 213.767C2250.2 212.449 2251.42 211.577 2252.69 211.151C2253.88 210.718 2255.45 210.449 2257.4 210.344C2255.48 210.098 2253.88 210.144 2252.62 210.482C2251.09 210.798 2249.61 211.561 2248.19 212.77C2246.18 214.638 2244.44 217.501 2242.98 221.357C2241.34 226.173 2240.25 232.535 2239.69 240.443L2239.48 242.945L2239.42 245.326C2239.27 247.169 2239.1 248.702 2238.91 249.924C2238.49 252.982 2237.62 255.96 2236.32 258.859C2233.53 264.904 2229.04 269.087 2222.84 271.407C2225.98 270.781 2228.92 269.431 2231.65 267.357C2234.2 265.357 2236.31 262.834 2237.97 259.789C2239.52 257.088 2240.61 253.952 2241.26 250.381C2241.55 248.991 2241.73 247.327 2241.8 245.388L2242.19 240.648C2242.63 233.084 2243.54 226.839 2244.92 221.914C2246.01 218.292 2247.38 215.576 2249.03 213.767ZM2155.59 218.569C2157.64 213.965 2160.34 210.165 2163.68 207.169C2167.51 203.594 2171.76 201.778 2176.45 201.72C2174.19 201.27 2171.75 201.379 2169.14 202.048C2166.69 202.732 2164.43 203.916 2162.35 205.602C2158.58 208.474 2155.56 212.469 2153.28 217.585C2149.36 226.631 2146.86 236.104 2145.78 246.002L2148.08 239.032L2150.36 232.193C2152.2 226.953 2153.95 222.412 2155.59 218.569ZM2237.75 210.722C2242.06 203.474 2248.71 199.954 2257.7 200.161C2270.31 200.575 2279.58 209.776 2285.53 227.762C2291.28 245.024 2292.73 266.133 2289.89 291.088C2286.26 323.49 2281.59 346.527 2275.87 360.199C2268.05 379.089 2256.37 387.897 2240.83 386.624C2231.62 385.868 2224.84 381.734 2220.51 374.22C2215.69 366.136 2214.27 354.884 2216.25 340.464C2217.3 331.89 2216.59 325.512 2214.1 321.332C2212.16 318.167 2209.21 316.423 2205.25 316.099C2197.18 315.437 2193.09 323.277 2192.99 339.618C2192.84 361.965 2184.23 373.677 2167.18 374.753C2159.54 375.188 2152.82 372.56 2147.01 366.87C2139.89 359.923 2135.21 349.067 2132.98 334.302C2129.92 314.432 2129.41 293.709 2131.45 272.135C2133.54 249.771 2138.03 230.608 2144.91 214.645C2148.41 206.36 2153.43 200.142 2159.95 195.993C2166.67 191.683 2173.93 190.466 2181.73 192.343C2191.44 194.641 2198.11 199.43 2201.76 206.711C2205.86 214.913 2206.44 226.67 2203.51 241.984C2202.54 247.384 2203.01 251.885 2204.92 255.489C2206.84 259.005 2209.94 261.115 2214.21 261.818C2218.48 262.522 2222.05 261.533 2224.93 258.852C2228.36 255.775 2230.22 250.89 2230.5 244.197C2231.05 228.864 2233.47 217.706 2237.75 210.722Z" fill="#BD1622"/>
<path d="M2405.64 245.189C2408.56 241.829 2411.31 238.982 2413.92 236.649C2416.93 233.923 2420.19 231.673 2423.7 229.898C2417.47 232.127 2410.97 236.807 2404.2 243.94C2399.08 249.328 2394.39 255.88 2390.13 263.597C2388.53 266.413 2386.7 269.998 2384.63 274.354L2381.95 279.741L2379.4 285.144C2377.14 289.652 2375 292.888 2372.98 294.851C2371.45 296.432 2369.84 297.516 2368.17 298.103C2366.6 298.614 2364.63 298.763 2362.26 298.551C2364.58 299.113 2366.62 299.149 2368.37 298.661C2370.28 298.282 2372.08 297.356 2373.78 295.884C2375.99 293.856 2378.45 290.572 2381.15 286.032C2382.51 283.718 2384.38 280.182 2386.76 275.423L2389.57 270.053L2392.37 264.814C2396.29 257.676 2400.72 251.134 2405.64 245.189ZM2317.61 274.643C2319.51 267.338 2321.42 261.097 2323.32 255.922L2324.14 253.63L2325.13 251.091C2325.83 249.049 2326.55 247.232 2327.28 245.638C2329.08 241.249 2330.98 237.494 2332.97 234.373C2338.31 225.905 2344.38 221.792 2351.18 222.033C2345.72 220.985 2340.48 223.117 2335.46 228.429C2333.61 230.414 2331.74 232.885 2329.86 235.843C2328.51 238.069 2327.17 240.607 2325.83 243.456C2318.78 257.744 2314.44 274.463 2312.81 293.612L2315.2 284.193L2317.61 274.643ZM2416.88 221.709C2428.84 215.59 2439.74 216.44 2449.58 224.258C2457.48 230.587 2462.74 244.04 2465.37 264.617C2467.84 283.664 2467.63 304.591 2464.73 327.397C2461.69 350.717 2456.71 369.707 2449.79 384.368C2441.95 400.687 2433 408.253 2422.94 407.066C2407.29 405.169 2401.03 393.588 2404.17 372.323C2404.69 368.926 2405.5 364.989 2406.6 360.511C2406.96 359.048 2407.42 357.241 2407.95 355.089L2408.66 352.649L2409.24 350.192C2410.99 343.399 2411.32 339.756 2410.23 339.263C2409.12 338.857 2408.21 339.052 2407.49 339.848C2406.99 340.317 2405.83 342.079 2404.02 345.135C2402.99 346.958 2401.99 348.562 2401.02 349.948C2399.67 352.174 2398.23 354.389 2396.71 356.593C2392.6 362.376 2387.73 368.595 2382.09 375.249C2375.71 382.874 2368.38 388.515 2360.1 392.171C2351.36 396.034 2342.94 396.92 2334.86 394.83C2307.22 387.417 2295.79 358.532 2300.58 308.175C2303.16 280.801 2308.8 258.032 2317.49 239.868C2326.53 221.126 2336.73 211.721 2348.11 211.654C2357.44 211.594 2363.85 214.938 2367.34 221.685C2371.67 230.226 2371.22 243.93 2365.99 262.8C2363.17 273.097 2361.67 279.743 2361.46 282.736C2361.13 286.067 2362.09 287.965 2364.34 288.427C2365.55 288.67 2366.93 287.602 2368.47 285.223C2369.67 283.51 2371.4 280.355 2373.67 275.76L2374.52 274.27L2375.25 272.764L2376.86 269.506C2378.17 266.831 2379.36 264.495 2380.41 262.498C2383.33 257.008 2386.2 252.222 2389.02 248.141C2397.73 235.484 2407.02 226.673 2416.88 221.709Z" fill="#BD1622"/>
<path d="M2567.32 330.398C2569.93 329.775 2572.33 328.536 2574.53 326.68C2579.14 322.738 2581.26 317.964 2580.88 312.357C2579 317.575 2576.33 321.672 2572.86 324.651C2569.08 327.932 2564.57 329.746 2559.33 330.093C2561.85 330.976 2564.52 331.078 2567.32 330.398ZM2557.11 301.692C2555.19 303.506 2554.04 305.809 2553.64 308.602C2553.25 311.394 2553.76 313.895 2555.17 316.104C2556.57 318.313 2558.46 319.576 2560.81 319.893C2563.09 320.195 2565.23 319.446 2567.23 317.647C2569.14 315.92 2570.29 313.66 2570.68 310.868C2571.07 308.075 2570.57 305.574 2569.16 303.365C2567.75 301.157 2565.87 299.894 2563.51 299.577C2561.24 299.274 2559.11 299.979 2557.11 301.692ZM2537.81 258.143C2541.89 255.182 2546.89 252.871 2552.81 251.21C2555.9 250.401 2558.62 249.888 2560.98 249.669C2562.19 249.43 2563.6 249.271 2565.22 249.193L2569.55 249C2563.72 248.084 2557.98 248.168 2552.34 249.252C2546.41 250.465 2541.06 252.759 2536.28 256.136C2531.38 259.671 2527.59 264.024 2524.91 269.193C2522.04 274.419 2520.38 279.898 2519.93 285.63C2520.86 282.305 2521.77 279.645 2522.65 277.652C2523.84 274.907 2525.16 272.409 2526.62 270.158C2529.79 265.252 2533.52 261.247 2537.81 258.143ZM2486.29 380.518C2488.74 374.594 2492.95 368.572 2498.92 362.451C2501.12 360.059 2503.8 357.482 2506.95 354.719L2511.19 351.158L2515.57 347.49C2511.68 349.322 2508.41 351.215 2505.75 353.17C2502.71 355.238 2499.78 357.727 2496.95 360.637C2493.89 363.864 2491.58 366.906 2490.02 369.765C2487.98 373.258 2486.74 376.842 2486.29 380.518ZM2535.81 245.599C2545.6 240.136 2557.04 237.817 2570.12 238.642C2587.19 239.706 2600.81 246.479 2611 258.959C2620.09 270 2625.94 284.817 2628.54 303.411C2630.89 320.352 2630.33 338.399 2626.85 357.552C2623.56 376.113 2618.14 392.562 2610.57 406.9C2605.95 415.577 2600.19 422.004 2593.31 426.18C2587.22 429.868 2581.08 431.267 2574.89 430.379C2568.87 429.52 2564.16 426.786 2560.75 422.177C2557.14 417.176 2555.83 411.051 2556.81 403.801C2558.68 390.359 2558.78 382.018 2557.1 378.78C2555.9 376.427 2553.48 376.725 2549.84 379.674C2547.66 381.443 2545.07 384.796 2542.08 389.731L2540.21 392.762L2538.31 396.053C2536.71 398.55 2535.27 400.714 2533.97 402.546C2526.18 413.001 2516.15 418.333 2503.87 418.54C2498.67 418.627 2493.68 416.963 2488.91 413.549C2484.05 410.119 2480.39 405.646 2477.95 400.13C2475.24 394.033 2474.48 387.556 2475.67 380.698C2476.98 373.06 2480.73 365.572 2486.91 358.236C2490.93 353.566 2495.37 349.326 2500.23 345.515C2502.07 344.135 2504.06 342.734 2506.18 341.312C2506.89 340.81 2507.75 340.242 2508.75 339.611L2511.15 338.147C2514.58 335.878 2516.71 334.145 2517.54 332.947C2518.73 331.274 2518.74 329.399 2517.57 327.322C2512.17 317.72 2509.28 307.524 2508.9 296.734C2508.6 286.046 2510.74 276.225 2515.32 267.272C2520.06 257.9 2526.89 250.676 2535.81 245.599Z" fill="#BD1622"/>
<path d="M2838.34 310.195C2839.69 309.068 2841.03 308.39 2842.35 308.162C2843.59 307.912 2845.18 307.884 2847.13 308.075C2845.26 307.541 2843.68 307.345 2842.38 307.488C2840.82 307.57 2839.24 308.101 2837.65 309.081C2835.39 310.624 2833.24 313.191 2831.2 316.782C2828.86 321.295 2826.82 327.418 2825.07 335.151L2824.49 337.593L2824.07 339.937C2823.64 341.737 2823.24 343.226 2822.87 344.405C2821.98 347.364 2820.68 350.178 2818.96 352.846C2815.29 358.401 2810.21 361.856 2803.73 363.212C2806.93 363.068 2810.04 362.178 2813.06 360.541C2815.88 358.949 2818.34 356.774 2820.45 354.015C2822.39 351.579 2823.94 348.645 2825.12 345.213C2825.62 343.883 2826.05 342.265 2826.41 340.359L2827.51 335.732C2829.09 328.321 2830.94 322.286 2833.04 317.626C2834.67 314.21 2836.43 311.733 2838.34 310.195ZM2745.24 300.815C2747.97 296.575 2751.21 293.227 2754.96 290.769C2759.29 287.814 2763.77 286.662 2768.41 287.314C2766.25 286.527 2763.82 286.267 2761.13 286.532C2758.61 286.839 2756.2 287.668 2753.88 289.019C2749.72 291.289 2746.13 294.78 2743.11 299.494C2737.86 307.843 2733.96 316.829 2731.4 326.451L2734.72 319.907L2738.01 313.492C2740.63 308.591 2743.04 304.366 2745.24 300.815ZM2827.65 305.478C2833 298.965 2840.1 296.49 2848.97 298.055C2861.36 300.37 2869.14 310.867 2872.3 329.546C2875.37 347.478 2873.62 368.563 2867.04 392.802C2858.55 424.283 2850.45 446.35 2842.74 459C2832.15 476.491 2819.27 483.433 2804.11 479.825C2795.11 477.685 2789.04 472.574 2785.89 464.491C2782.35 455.773 2782.65 444.435 2786.78 430.48C2789.12 422.164 2789.38 415.751 2787.55 411.243C2786.1 407.82 2783.45 405.65 2779.6 404.733C2771.71 402.858 2766.49 409.989 2763.92 426.127C2760.39 448.194 2750.11 458.471 2733.09 456.957C2725.48 456.233 2719.23 452.619 2714.35 446.116C2708.36 438.173 2705.38 426.735 2705.4 411.801C2705.38 391.697 2708.01 371.136 2713.28 350.117C2718.73 328.327 2726.07 310.062 2735.27 295.321C2739.99 287.662 2745.89 282.274 2752.97 279.159C2760.26 275.914 2767.62 275.808 2775.04 278.842C2784.29 282.581 2790.17 288.325 2792.67 296.073C2795.49 304.8 2794.29 316.511 2789.07 331.205C2787.29 336.396 2787.08 340.917 2788.43 344.768C2789.79 348.534 2792.54 351.088 2796.65 352.429C2800.77 353.771 2804.45 353.333 2807.69 351.117C2811.55 348.595 2814.13 344.046 2815.42 337.473C2818.28 322.399 2822.36 311.735 2827.65 305.478Z" fill="#BD1622"/>
<path d="M2947.78 462.385C2950.38 461.945 2952.86 460.826 2955.21 459.03C2959.8 455.498 2962.27 450.937 2962.6 445.348C2960.13 450.411 2957.12 454.311 2953.58 457.047C2949.71 459.965 2945.15 461.628 2939.9 462.037C2942.39 462.939 2945.02 463.055 2947.78 462.385ZM2936.47 430.105C2934.19 432.288 2932.84 435.061 2932.42 438.424C2932 441.786 2932.65 444.77 2934.37 447.376C2936.09 449.982 2938.37 451.465 2941.2 451.823C2944.03 452.182 2946.59 451.269 2948.87 449.085C2951.21 447.011 2952.54 444.28 2952.88 440.893C2953.3 437.531 2952.65 434.547 2950.93 431.941C2949.23 429.25 2946.96 427.726 2944.13 427.367C2941.28 427.093 2938.72 428.006 2936.47 430.105ZM2933.34 345.179C2939.79 341.906 2946.65 339.898 2953.92 339.156C2960.55 338.412 2967.8 338.855 2975.68 340.485L2970.38 338.82L2967.68 338.177L2964.94 337.661C2961.07 337.094 2957.37 336.897 2953.84 337.068C2946.49 337.423 2939.28 339.376 2932.21 342.926C2925.57 346.235 2919.6 350.701 2914.31 356.325C2909.18 361.719 2904.88 367.721 2901.42 374.329L2904.75 369.928L2908.21 365.564L2911.85 361.527L2915.71 357.69C2921.56 352.322 2927.44 348.152 2933.34 345.179ZM2930.62 333.666C2952.46 323.744 2975.52 325.773 2999.81 339.753C3021.51 352.25 3033.26 370.449 3035.07 394.349C3036.66 415.527 3030.58 437.198 3016.85 459.362C3003.46 480.982 2986.98 496.485 2967.4 505.868C2945.91 516.166 2926.28 515.907 2908.5 505.09C2889.52 493.653 2878.26 475.504 2874.71 450.643C2871.35 427.67 2874.93 404.777 2885.46 381.962C2896.35 358.52 2911.41 342.421 2930.62 333.666Z" fill="#BD1622"/>
<path d="M3138.11 503.669C3139.4 503.177 3140.49 502.85 3141.38 502.689C3143.89 502.15 3146.26 502.027 3148.48 502.322C3146.49 501.082 3144.05 500.577 3141.18 500.808C3140.15 500.828 3138.88 501 3137.38 501.324L3133.94 502.386C3129.23 503.662 3124.6 503.991 3120.07 503.375C3122.06 504.614 3124.42 505.327 3127.15 505.514C3129.41 505.725 3131.92 505.464 3134.68 504.731L3138.11 503.669ZM3080.51 406.955C3086.01 402.036 3091.67 398.107 3097.52 395.167C3103.64 391.952 3110.2 389.909 3117.2 389.039C3123.52 388.499 3130.41 389.174 3137.86 391.065C3134.95 389.791 3131.57 388.778 3127.73 388.027C3124.42 387.363 3120.84 387.073 3117 387.157C3109.98 387.554 3103.09 389.483 3096.32 392.945C3089.89 396.242 3084.18 400.435 3079.19 405.525C3074.08 410.67 3069.78 416.322 3066.28 422.481C3071.12 416.22 3075.86 411.045 3080.51 406.955ZM3158.26 496.165C3165.32 502.204 3167.23 511.883 3163.99 525.202C3160.49 539.829 3151.72 550.797 3137.69 558.108C3122.95 565.831 3106.29 567.357 3087.69 562.685C3076.7 559.961 3067.18 555.27 3059.13 548.612C3051.07 541.954 3044.94 533.721 3040.75 523.915C3031.65 503.127 3031.89 478.686 3041.48 450.592C3049.92 425.834 3062.3 406.882 3078.6 393.739C3093.59 381.728 3109.11 376.461 3125.17 377.94C3137.72 379.059 3149.03 383.289 3159.09 390.63C3170.06 398.562 3177.61 408.908 3181.72 421.666C3183.6 427.613 3184.04 433.298 3183.02 438.723C3182.15 443.73 3180.17 447.895 3177.09 451.215C3174.06 454.369 3170.56 456.155 3166.6 456.573C3162.45 457.017 3158.5 455.764 3154.76 452.813C3146.29 446.012 3139.2 442.104 3133.5 441.089C3125.68 439.725 3119.56 443.358 3115.12 451.99C3112.07 457.929 3110.37 463.864 3110.03 469.795C3109.76 475.197 3110.64 480.008 3112.64 484.228C3114.67 488.365 3117.46 491.225 3121.02 492.81C3124.79 494.564 3128.94 494.677 3133.47 493.149C3138.1 491.566 3142.62 491.013 3147.01 491.49C3151.41 491.966 3155.16 493.525 3158.26 496.165Z" fill="#BD1622"/>
<path d="M3253.69 566.732C3256.32 566.551 3258.9 565.684 3261.41 564.129C3266.34 561.069 3269.24 556.775 3270.12 551.246C3267.16 556.039 3263.78 559.622 3259.99 561.995C3255.85 564.515 3251.15 565.719 3245.89 565.606C3248.27 566.75 3250.87 567.126 3253.69 566.732ZM3245.63 533.49C3243.15 535.437 3241.53 538.063 3240.78 541.367C3240.02 544.672 3240.38 547.706 3241.83 550.469C3243.29 553.233 3245.41 554.934 3248.19 555.571C3250.97 556.208 3253.6 555.553 3256.09 553.605C3258.62 551.773 3260.22 549.188 3260.89 545.851C3261.65 542.547 3261.29 539.513 3259.84 536.749C3258.41 533.903 3256.31 532.162 3253.53 531.525C3250.72 530.97 3248.08 531.625 3245.63 533.49ZM3250.93 448.673C3257.67 446.054 3264.69 444.735 3272 444.716C3278.67 444.632 3285.85 445.791 3293.52 448.194L3288.41 446.011L3285.79 445.105L3283.11 444.32C3279.32 443.373 3275.66 442.81 3272.12 442.631C3264.78 442.257 3257.41 443.486 3250.02 446.318C3243.09 448.953 3236.71 452.807 3230.89 457.879C3225.25 462.739 3220.37 468.285 3216.27 474.518L3220.02 470.469L3223.9 466.469L3227.92 462.812L3232.14 459.376C3238.5 454.614 3244.76 451.046 3250.93 448.673ZM3249.35 436.946C3272.07 429.235 3294.82 433.538 3317.61 449.854C3337.96 464.438 3347.85 483.711 3347.29 507.673C3346.77 528.904 3338.58 549.867 3322.72 570.563C3307.26 590.751 3289.32 604.545 3268.91 611.945C3246.51 620.064 3227 617.862 3210.37 605.338C3192.63 592.079 3183.22 572.904 3182.14 547.813C3181.07 524.62 3186.91 502.194 3199.64 480.534C3212.8 458.286 3229.37 443.756 3249.35 436.946Z" fill="#BD1622"/>
<path d="M3410.12 634.864C3413.27 634.782 3416.15 633.701 3418.78 631.623C3421.29 629.587 3423.09 627.077 3424.19 624.092C3425.38 621.145 3425.79 618.179 3425.44 615.194C3423.99 621.615 3421.26 626.415 3417.25 629.594C3415.08 631.306 3412.61 632.434 3409.83 632.98C3407.16 633.484 3404.36 633.34 3401.43 632.55C3403.99 634.335 3406.89 635.106 3410.12 634.864ZM3401.69 606.418C3400.36 608.62 3399.8 611.176 3400 614.087C3400.27 617.035 3401.26 619.492 3402.97 621.457C3404.59 623.384 3406.47 624.261 3408.59 624.087C3410.71 623.914 3412.44 622.726 3413.76 620.524C3415.08 618.322 3415.64 615.766 3415.45 612.855C3415.17 609.906 3414.18 607.45 3412.48 605.485C3410.85 603.557 3408.98 602.681 3406.85 602.854C3404.73 603.028 3403.01 604.216 3401.69 606.418ZM3418.96 559.802C3416.96 559.934 3414.89 559.791 3412.75 559.374C3414.44 560.749 3416.51 561.522 3418.95 561.694C3421.2 561.871 3423.48 561.575 3425.79 560.806C3430.62 558.984 3433.76 555.927 3435.18 551.634C3433.57 553.213 3431.97 554.556 3430.38 555.661C3428.44 556.894 3426.6 557.829 3424.84 558.466C3423.08 559.103 3421.12 559.549 3418.96 559.802ZM3423.33 539.237C3421.6 539.203 3419.92 539.779 3418.29 540.965C3416.71 542.07 3415.64 543.418 3415.09 545.009C3414.54 546.599 3414.63 547.956 3415.37 549.08C3416.19 550.241 3417.43 550.819 3419.08 550.815C3420.82 550.848 3422.5 550.272 3424.12 549.087C3425.71 547.982 3426.78 546.633 3427.32 545.043C3427.87 543.452 3427.78 542.095 3427.04 540.972C3426.22 539.811 3424.99 539.233 3423.33 539.237ZM3398.63 514.704C3402.01 512.685 3405.1 511.166 3407.91 510.146C3411.03 508.882 3414.32 507.989 3417.77 507.465C3424.52 506.342 3431.29 507.031 3438.1 509.533C3435.22 507.992 3431.94 506.798 3428.25 505.949C3425.12 505.361 3421.53 505.238 3417.48 505.581C3411 506.145 3404.32 508.467 3397.45 512.548C3391.48 516.173 3386.02 520.67 3381.08 526.04C3376.14 531.411 3371.91 537.018 3368.4 542.863C3373.36 536.823 3378.06 531.676 3382.48 527.422C3388.09 522.074 3393.47 517.834 3398.63 514.704ZM3439.06 575.471C3437.29 577.173 3436.95 578.62 3438.05 579.812C3449.03 591.464 3455.48 604.693 3457.41 619.498C3459.15 633.244 3456.82 645.915 3450.43 657.51C3443.92 669.344 3434.57 677.371 3422.39 681.592C3409.08 686.354 3394.44 685.634 3378.48 679.433C3361.8 672.895 3349.77 662.552 3342.38 648.402C3335.79 635.689 3333.3 620.721 3334.94 603.498C3336.42 587.658 3341.18 571.751 3349.24 555.778C3357.14 540.124 3366.96 526.824 3378.69 515.877C3390.03 505.335 3401.75 498.999 3413.83 496.869C3424.38 495.096 3434.27 496.511 3443.49 501.116C3451.92 505.348 3458.28 511.388 3462.58 519.235C3466.92 527.002 3468.09 534.498 3466.07 541.722C3464.27 548.271 3461.41 554.08 3457.48 559.147C3454.74 562.726 3451.28 566.166 3447.11 569.467C3446.34 570.079 3445.51 570.711 3444.62 571.365L3443.52 572.162L3442.47 572.84C3440.85 574.025 3439.71 574.902 3439.06 575.471Z" fill="#BD1622"/>
<path d="M3547.05 688.613C3548.99 689.111 3551.12 689.204 3553.42 688.893C3558.07 688.194 3561.71 686.159 3564.34 682.788C3559.97 684.765 3556.24 685.986 3553.14 686.452C3549.28 686.996 3545.39 686.71 3541.47 685.594C3542.97 687.054 3544.83 688.061 3547.05 688.613ZM3543.77 668.971C3543.09 671.42 3543.41 673.528 3544.74 675.295C3546.11 676.985 3548.07 677.8 3550.64 677.739C3553.25 677.602 3555.67 676.646 3557.89 674.871C3560.16 673.02 3561.64 670.87 3562.32 668.421C3562.93 665.928 3562.54 663.837 3561.18 662.147C3559.81 660.457 3557.84 659.642 3555.27 659.702C3552.7 659.763 3550.29 660.719 3548.02 662.57C3545.79 664.345 3544.38 666.479 3543.77 668.971ZM3541.73 612.946C3549.65 608.634 3556.19 605.314 3561.37 602.986C3568.77 599.593 3575.57 596.977 3581.78 595.139L3584.48 594.395C3585.45 594.131 3586.3 593.959 3587.06 593.881L3589.81 593.318L3592.43 592.984C3596.86 592.668 3600.45 593.135 3603.18 594.385C3600.74 592.795 3597.14 591.913 3592.38 591.738L3589.59 591.827L3586.79 592.21C3586.04 592.288 3585.14 592.438 3584.1 592.659L3581.35 593.222C3575.21 594.591 3568.17 597.076 3560.25 600.678C3553.37 603.862 3546.85 607.401 3540.69 611.293C3534.04 615.515 3528.01 619.789 3522.61 624.117L3532.2 618.474C3535.82 616.379 3539 614.536 3541.73 612.946ZM3565.45 588.588C3586.59 580.444 3601.7 579.967 3610.78 587.157C3619.83 594.423 3624.23 608.424 3623.99 629.161C3623.68 647.527 3619.92 668.234 3612.7 691.281C3605.76 713.475 3597.47 732.067 3587.83 747.056C3577.52 763.075 3568.21 770.706 3559.93 769.949C3552.91 769.299 3547.27 766.198 3543.03 760.647C3539.87 756.415 3537.14 750.254 3534.85 742.164L3533.64 737.07L3532.36 732.091C3531.4 727.898 3530.62 724.819 3530.02 722.853C3528.11 716.401 3525.74 712.37 3522.91 710.759C3520.15 709.192 3515.53 709.4 3509.03 711.381C3507.19 711.953 3504.15 713.015 3499.93 714.565L3494.98 716.313C3493.09 716.962 3491.35 717.54 3489.74 718.046C3481.52 720.567 3474.55 721.517 3468.82 720.897C3461.18 720.095 3454.81 716.581 3449.74 710.354C3442.96 702.143 3445.53 689.42 3457.45 672.185C3468.31 656.472 3484.23 640.495 3505.21 624.256C3526.35 607.907 3546.43 596.017 3565.45 588.588Z" fill="#BD1622"/>
<defs>
<filter id="filter0_d_731_271" x="0" y="0" width="3804" height="938" filterUnits="userSpaceOnUse" color-interpolation-filters="sRGB">
<feFlood flood-opacity="0" result="BackgroundImageFix"/>
<feColorMatrix in="SourceAlpha" type="matrix" values="0 0 0 0 0 0 0 0 0 0 0 0 0 0 0 0 0 0 127 0" result="hardAlpha"/>
<feOffset dx="10" dy="10"/>
<feGaussianBlur stdDeviation="10"/>
<feComposite in2="hardAlpha" operator="out"/>
<feColorMatrix type="matrix" values="0 0 0 0 0 0 0 0 0 0 0 0 0 0 0 0 0 0 0.25 0"/>
<feBlend mode="normal" in2="BackgroundImageFix" result="effect1_dropShadow_731_271"/>
<feBlend mode="normal" in="SourceGraphic" in2="effect1_dropShadow_731_271" result="shape"/>
</filter>
</defs>
</svg>
